<?xml version="1.0" encoding="UTF-8" standalone="no"?>
<svg xmlns="http://www.w3.org/2000/svg" xmlns:xlink="http://www.w3.org/1999/xlink" focusable="true" height="249.0" id="workspace" preserveAspectRatio="xMinYMin" viewBox="-546.0 -121.0 1044.0 249.0" width="1044.0">
<path d="M-137,61 C-146,61 -156,72 -165,72" fill="#495879" fill-opacity="1" stroke="#495879" stroke-opacity="1" stroke-width="1px" style="fill:none " visibility="visible"/>
<path d="M-137,61 C-146,61 -157,47 -166,47" fill="#495879" fill-opacity="1" stroke="#495879" stroke-opacity="1" stroke-width="1px" style="fill:none " visibility="visible"/>
<rect data-darkreader-inline-fill="" data-darkreader-inline-stroke="" fill="#CC0033" fill-opacity="0.4" height="22" rx="0" ry="0" stroke="#FF9933" stroke-opacity="0.4" stroke-width="1px" style="--darkreader-inline-fill: #a30029; --darkreader-inline-stroke: #ff9e3d;" visibility="hidden" width="52" x="-138" y="41"/>
<path d="M-213,15 C-187.66666666666666,30.33333333333334 -162.33333333333334,45.66666666666666 -137,61" data-darkreader-inline-fill="" data-darkreader-inline-stroke="" fill-opacity="0.4" stroke="#CC0033" stroke-opacity="0.4" stroke-width="1px" style="fill: none; --darkreader-inline-stroke: #ff3d6e; --darkreader-inline-fill: none;" visibility="hidden"/>
<path d="M-143,-57 C-95.33333333333334,-38 -47.666666666666664,-19 0,0" data-darkreader-inline-fill="" data-darkreader-inline-stroke="" fill-opacity="0.4" stroke="#CC0033" stroke-opacity="0.4" stroke-width="1px" style="fill: none; --darkreader-inline-stroke: #ff3d6e; --darkreader-inline-fill: none;" visibility="hidden"/>
<path d="M0,0 C-29,0 -59,61 -88,61 -59,64 -29,5 0,7 Z" fill="#495879" fill-opacity="1" stroke="#495879" stroke-opacity="1" stroke-width="1px" style="fill:#495879 " visibility="visible"/>
<path d="M0,0 C29,0 59,49 88,49 59,52 29,5 0,7 Z" fill="#495879" fill-opacity="1" stroke="#495879" stroke-opacity="1" stroke-width="1px" style="fill:#495879 " visibility="visible"/>
<path d="M255,11 C264,11 274,20 283,20" fill="#495879" fill-opacity="1" stroke="#495879" stroke-opacity="1" stroke-width="1px" style="fill:none " visibility="visible"/>
<path d="M255,11 C264,11 274,-4 283,-4" fill="#495879" fill-opacity="1" stroke="#495879" stroke-opacity="1" stroke-width="1px" style="fill:none " visibility="visible"/>
<path d="M0,0 C29,0 59,11 88,11 59,14 29,5 0,7 Z" fill="#495879" fill-opacity="1" stroke="#495879" stroke-opacity="1" stroke-width="1px" style="fill:#495879 " visibility="visible"/>
<path d="M0,0 C-29,0 -58,22 -87,22 -58,25 -29,5 0,7 Z" fill="#495879" fill-opacity="1" stroke="#495879" stroke-opacity="1" stroke-width="1px" style="fill:#495879 " visibility="visible"/>
<path d="M-245,-29 C-254,-29 -265,-6 -274,-6" fill="#495879" fill-opacity="1" stroke="#495879" stroke-opacity="1" stroke-width="1px" style="fill:none " visibility="visible"/>
<path d="M-245,-29 C-254,-29 -265,-31 -274,-31" fill="#495879" fill-opacity="1" stroke="#495879" stroke-opacity="1" stroke-width="1px" style="fill:none " visibility="visible"/>
<path d="M-245,-29 C-255,-29 -265,-56 -275,-56" fill="#495879" fill-opacity="1" stroke="#495879" stroke-opacity="1" stroke-width="1px" style="fill:none " visibility="visible"/>
<path d="M0,0 C-29,0 -58,-29 -87,-29 -58,-26 -29,5 0,7 Z" fill="#495879" fill-opacity="1" stroke="#495879" stroke-opacity="1" stroke-width="1px" style="fill:#495879 " visibility="visible"/>
<path d="M0,0 C29,0 59,-29 88,-29 59,-26 29,5 0,7 Z" fill="#495879" fill-opacity="1" stroke="#495879" stroke-opacity="1" stroke-width="1px" style="fill:#495879 " visibility="visible"/>
<g focusable="true" height="100" preserveAspectRatio="none" transform="translate(-58,-19) scale(1,1)" visibility="visible" width="100">
<rect data-darkreader-inline-fill="" data-darkreader-inline-stroke="" fill="rgb(252,235,192)" fill-opacity="0" height="44" rx="6.6" ry="6.6" stroke="rgb(241,163,39)" stroke-opacity="0" stroke-width="1px" style="cursor: default; --darkreader-inline-fill: #563f04; --darkreader-inline-stroke: #f2aa38;" width="120" x="-2" y="-3"/>
<rect data-darkreader-inline-fill="" data-darkreader-inline-stroke="" fill="rgb(80,157,192)" height="38" rx="5.7" ry="5.7" stroke="rgb(57,113,177)" stroke-width="2px" style="cursor: default; --darkreader-inline-fill: #33728f; --darkreader-inline-stroke: #6ea3d0;" width="116" x="0" y="0"/>
<text data-darkreader-inline-fill="" fill="#ffffff" font-family="verdana" font-size="13.4375" font-style="normal" font-weight="bold" style="cursor: default; --darkreader-inline-fill: #e8e6e3;" visibility="visible" x="11" y="11">
<tspan dy="1em" x="11">Designrecht</tspan>
</text>
<g focusable="true" height="16" preserveAspectRatio="none" transform="translate(0,11) scale(0,0.16)" width="0"/>
</g>
<g focusable="true" height="100" preserveAspectRatio="none" transform="translate(88,-48) scale(1,1)" visibility="visible" width="100">
<rect data-darkreader-inline-fill="" data-darkreader-inline-stroke="" fill="rgb(252,235,192)" fill-opacity="0" height="25" rx="3.75" ry="3.75" stroke="rgb(241,163,39)" stroke-opacity="0" stroke-width="1px" style="cursor: move; --darkreader-inline-fill: #563f04; --darkreader-inline-stroke: #f2aa38;" width="161" x="-2" y="-3"/>
<line data-darkreader-inline-stroke="" stroke="#495879" stroke-opacity="1" stroke-width="1px" style="cursor: move; --darkreader-inline-stroke: #4a597b;" x1="0" x2="157" y1="19" y2="19"/>
<text data-darkreader-inline-fill="" fill="rgb(82,92,97)" font-family="verdana" font-size="10.75" font-style="normal" font-weight="normal" style="cursor: move; --darkreader-inline-fill: #afa99e;" visibility="visible" x="3" y="3">
<tspan dy="1em" x="3">Was ist Design? § 1 DesignG</tspan>
</text>
<ellipse cx="160" cy="19" data-darkreader-inline-fill="" data-darkreader-inline-stroke="" fill="rgb(224,229,239)" height="6" rx="3" ry="3" stroke="rgb(2,59,185)" stroke-width="1px" style="cursor: default; --darkreader-inline-fill: #c8d5e2; --darkreader-inline-stroke: #5eaafd;" visibility="hidden" width="6"/>
<g focusable="true" height="13" preserveAspectRatio="none" transform="translate(0,3) scale(0,0.13)" width="0"/>
</g>
<g focusable="true" height="100" preserveAspectRatio="none" transform="translate(-244,-48) scale(1,1)" visibility="visible" width="100">
<rect data-darkreader-inline-fill="" data-darkreader-inline-stroke="" fill="rgb(252,235,192)" fill-opacity="0" height="25" rx="3.75" ry="3.75" stroke="rgb(241,163,39)" stroke-opacity="0" stroke-width="1px" style="cursor: move; --darkreader-inline-fill: #563f04; --darkreader-inline-stroke: #f2aa38;" width="161" x="-2" y="-3"/>
<line data-darkreader-inline-stroke="" stroke="#495879" stroke-opacity="1" stroke-width="1px" style="cursor: move; --darkreader-inline-stroke: #4a597b;" x1="0" x2="157" y1="19" y2="19"/>
<text data-darkreader-inline-fill="" fill="rgb(82,92,97)" font-family="verdana" font-size="10.75" font-style="normal" font-weight="normal" style="cursor: move; --darkreader-inline-fill: #afa99e;" visibility="visible" x="3" y="3">
<tspan dy="1em" x="3">Voraussetzungen für Schutz</tspan>
</text>
<ellipse cx="-3" cy="19" data-darkreader-inline-fill="" data-darkreader-inline-stroke="" fill="rgb(224,229,239)" height="6" rx="3" ry="3" stroke="rgb(2,59,185)" stroke-width="1px" style="cursor: default; --darkreader-inline-fill: #c8d5e2; --darkreader-inline-stroke: #5eaafd;" visibility="visible" width="6"/>
<g focusable="true" height="13" preserveAspectRatio="none" transform="translate(0,3) scale(0,0.13)" width="0"/>
</g>
<g focusable="true" height="100" preserveAspectRatio="none" transform="translate(-421,-71) scale(1,1)" visibility="visible" width="100">
<rect data-darkreader-inline-fill="" data-darkreader-inline-stroke="" fill="rgb(252,235,192)" fill-opacity="0" height="21" rx="3.15" ry="3.15" stroke="rgb(241,163,39)" stroke-opacity="0" stroke-width="1px" style="cursor: move; --darkreader-inline-fill: #563f04; --darkreader-inline-stroke: #f2aa38;" width="150" x="-2" y="-3"/>
<line data-darkreader-inline-stroke="" stroke="#495879" stroke-opacity="1" stroke-width="1px" style="cursor: move; --darkreader-inline-stroke: #4a597b;" x1="0" x2="146" y1="15" y2="15"/>
<text data-darkreader-inline-fill="" fill="rgb(82,92,97)" font-family="verdana" font-size="8.0625" font-style="normal" font-weight="normal" style="cursor: move; --darkreader-inline-fill: #afa99e;" visibility="visible" x="3" y="3">
<tspan dy="1em" x="3">Neuheit § 2(2) Satz 1 DesignG</tspan>
</text>
<g focusable="true" height="9" preserveAspectRatio="none" transform="translate(0,3) scale(0,0.09)" width="0"/>
<ellipse cx="3" cy="3" data-darkreader-inline-fill="" data-darkreader-inline-stroke="" fill="rgb(224,229,239)" height="6" rx="3" ry="3" stroke="rgb(2,59,185)" stroke-width="1px" style="cursor: default; --darkreader-inline-fill: #c8d5e2; --darkreader-inline-stroke: #5eaafd;" visibility="hidden" width="6"/>
</g>
<g focusable="true" height="100" preserveAspectRatio="none" transform="translate(-427,-46) scale(1,1)" visibility="visible" width="100">
<rect data-darkreader-inline-fill="" data-darkreader-inline-stroke="" fill="rgb(252,235,192)" fill-opacity="0" height="21" rx="3.15" ry="3.15" stroke="rgb(241,163,39)" stroke-opacity="0" stroke-width="1px" style="cursor: move; --darkreader-inline-fill: #563f04; --darkreader-inline-stroke: #f2aa38;" width="157" x="-2" y="-3"/>
<line data-darkreader-inline-stroke="" stroke="#495879" stroke-opacity="1" stroke-width="1px" style="cursor: move; --darkreader-inline-stroke: #4a597b;" x1="0" x2="153" y1="15" y2="15"/>
<text data-darkreader-inline-fill="" fill="rgb(82,92,97)" font-family="verdana" font-size="8.0625" font-style="normal" font-weight="normal" style="cursor: move; --darkreader-inline-fill: #afa99e;" visibility="visible" x="3" y="3">
<tspan dy="1em" x="3">Identisch § 2(2) Satz 2 DesignG</tspan>
</text>
<g focusable="true" height="9" preserveAspectRatio="none" transform="translate(0,3) scale(0,0.09)" width="0"/>
<ellipse cx="3" cy="3" data-darkreader-inline-fill="" data-darkreader-inline-stroke="" fill="rgb(224,229,239)" height="6" rx="3" ry="3" stroke="rgb(2,59,185)" stroke-width="1px" style="cursor: default; --darkreader-inline-fill: #c8d5e2; --darkreader-inline-stroke: #5eaafd;" visibility="hidden" width="6"/>
</g>
<g focusable="true" height="100" preserveAspectRatio="none" transform="translate(-423,-21) scale(1,1)" visibility="visible" width="100">
<rect data-darkreader-inline-fill="" data-darkreader-inline-stroke="" fill="rgb(252,235,192)" fill-opacity="0" height="21" rx="3.15" ry="3.15" stroke="rgb(241,163,39)" stroke-opacity="0" stroke-width="1px" style="cursor: move; --darkreader-inline-fill: #563f04; --darkreader-inline-stroke: #f2aa38;" width="153" x="-2" y="-3"/>
<line data-darkreader-inline-stroke="" stroke="#495879" stroke-opacity="1" stroke-width="1px" style="cursor: move; --darkreader-inline-stroke: #4a597b;" x1="0" x2="149" y1="15" y2="15"/>
<text data-darkreader-inline-fill="" fill="rgb(82,92,97)" font-family="verdana" font-size="8.0625" font-style="normal" font-weight="normal" style="cursor: move; --darkreader-inline-fill: #afa99e;" visibility="visible" x="3" y="3">
<tspan dy="1em" x="3">Eigenart § 2(3) Satz 1 DesignG</tspan>
</text>
<g focusable="true" height="9" preserveAspectRatio="none" transform="translate(0,3) scale(0,0.09)" width="0"/>
<ellipse cx="3" cy="3" data-darkreader-inline-fill="" data-darkreader-inline-stroke="" fill="rgb(224,229,239)" height="6" rx="3" ry="3" stroke="rgb(2,59,185)" stroke-width="1px" style="cursor: default; --darkreader-inline-fill: #c8d5e2; --darkreader-inline-stroke: #5eaafd;" visibility="hidden" width="6"/>
</g>
<g focusable="true" height="100" preserveAspectRatio="none" transform="translate(-300,3) scale(1,1)" visibility="visible" width="100">
<rect data-darkreader-inline-fill="" data-darkreader-inline-stroke="" fill="rgb(252,235,192)" fill-opacity="0" height="25" rx="3.75" ry="3.75" stroke="rgb(241,163,39)" stroke-opacity="0" stroke-width="1px" style="cursor: move; --darkreader-inline-fill: #563f04; --darkreader-inline-stroke: #f2aa38;" width="217" x="-2" y="-3"/>
<line data-darkreader-inline-stroke="" stroke="#495879" stroke-opacity="1" stroke-width="1px" style="cursor: move; --darkreader-inline-stroke: #4a597b;" visibility="visible" x1="0" x2="213" y1="19" y2="19"/>
<text data-darkreader-inline-fill="" fill="rgb(82,92,97)" font-family="verdana" font-size="10.75" font-style="normal" font-weight="normal" style="cursor: move; --darkreader-inline-fill: #afa99e;" visibility="visible" x="3" y="3">
<tspan dy="1em" x="3">Ausschlüsse für Schutz § 3 DesignG</tspan>
</text>
<g focusable="true" height="13" preserveAspectRatio="none" transform="translate(0,3) scale(0,0.13)" width="0"/>
<ellipse cx="3" cy="3" data-darkreader-inline-fill="" data-darkreader-inline-stroke="" fill="rgb(224,229,239)" height="6" rx="3" ry="3" stroke="rgb(2,59,185)" stroke-width="1px" style="cursor: default; --darkreader-inline-fill: #c8d5e2; --darkreader-inline-stroke: #5eaafd;" visibility="hidden" width="6"/>
</g>
<g focusable="true" height="100" preserveAspectRatio="none" transform="translate(88,-8) scale(1,1)" visibility="visible" width="100">
<rect data-darkreader-inline-fill="" data-darkreader-inline-stroke="" fill="rgb(252,235,192)" fill-opacity="0" height="25" rx="3.75" ry="3.75" stroke="rgb(241,163,39)" stroke-opacity="0" stroke-width="1px" style="cursor: move; --darkreader-inline-fill: #563f04; --darkreader-inline-stroke: #f2aa38;" width="169" x="-2" y="-3"/>
<line data-darkreader-inline-stroke="" stroke="#495879" stroke-opacity="1" stroke-width="1px" style="cursor: move; --darkreader-inline-stroke: #4a597b;" x1="0" x2="165" y1="19" y2="19"/>
<text data-darkreader-inline-fill="" fill="rgb(82,92,97)" font-family="verdana" font-size="10.75" font-style="normal" font-weight="normal" style="cursor: move; --darkreader-inline-fill: #afa99e;" visibility="visible" x="3" y="3">
<tspan dy="1em" x="3">Schutzerwerb § 11 DesignG</tspan>
</text>
<ellipse cx="168" cy="19" data-darkreader-inline-fill="" data-darkreader-inline-stroke="" fill="rgb(224,229,239)" height="6" rx="3" ry="3" stroke="rgb(2,59,185)" stroke-width="1px" style="cursor: default; --darkreader-inline-fill: #c8d5e2; --darkreader-inline-stroke: #5eaafd;" visibility="visible" width="6"/>
<g focusable="true" height="13" preserveAspectRatio="none" transform="translate(0,3) scale(0,0.13)" width="0"/>
</g>
<g focusable="true" height="100" preserveAspectRatio="none" transform="translate(283,-19) scale(1,1)" visibility="visible" width="100">
<rect data-darkreader-inline-fill="" data-darkreader-inline-stroke="" fill="rgb(252,235,192)" fill-opacity="0" height="21" rx="3.15" ry="3.15" stroke="rgb(241,163,39)" stroke-opacity="0" stroke-width="1px" style="cursor: move; --darkreader-inline-fill: #563f04; --darkreader-inline-stroke: #f2aa38;" width="165" x="-2" y="-3"/>
<line data-darkreader-inline-stroke="" stroke="#495879" stroke-opacity="1" stroke-width="1px" style="cursor: move; --darkreader-inline-stroke: #4a597b;" x1="0" x2="161" y1="15" y2="15"/>
<text data-darkreader-inline-fill="" fill="rgb(82,92,97)" font-family="verdana" font-size="8.0625" font-style="normal" font-weight="normal" style="cursor: move; --darkreader-inline-fill: #afa99e;" visibility="visible" x="3" y="3">
<tspan dy="1em" x="3">Sammelanmeldung § 12 DesignG</tspan>
</text>
<g focusable="true" height="9" preserveAspectRatio="none" transform="translate(0,3) scale(0,0.09)" width="0"/>
<ellipse cx="3" cy="3" data-darkreader-inline-fill="" data-darkreader-inline-stroke="" fill="rgb(224,229,239)" height="6" rx="3" ry="3" stroke="rgb(2,59,185)" stroke-width="1px" style="cursor: default; --darkreader-inline-fill: #c8d5e2; --darkreader-inline-stroke: #5eaafd;" visibility="hidden" width="6"/>
</g>
<g focusable="true" height="100" preserveAspectRatio="none" transform="translate(283,5) scale(1,1)" visibility="visible" width="100">
<rect data-darkreader-inline-fill="" data-darkreader-inline-stroke="" fill="rgb(252,235,192)" fill-opacity="0" height="21" rx="3.15" ry="3.15" stroke="rgb(241,163,39)" stroke-opacity="0" stroke-width="1px" style="cursor: move; --darkreader-inline-fill: #563f04; --darkreader-inline-stroke: #f2aa38;" width="154" x="-2" y="-3"/>
<line data-darkreader-inline-stroke="" stroke="#495879" stroke-opacity="1" stroke-width="1px" style="cursor: move; --darkreader-inline-stroke: #4a597b;" x1="0" x2="150" y1="15" y2="15"/>
<text data-darkreader-inline-fill="" fill="rgb(82,92,97)" font-family="verdana" font-size="8.0625" font-style="normal" font-weight="normal" style="cursor: move; --darkreader-inline-fill: #afa99e;" visibility="visible" x="3" y="3">
<tspan dy="1em" x="3">Neuheitsschonfrist § 6 DesignG</tspan>
</text>
<g focusable="true" height="9" preserveAspectRatio="none" transform="translate(0,3) scale(0,0.09)" width="0"/>
<ellipse cx="3" cy="3" data-darkreader-inline-fill="" data-darkreader-inline-stroke="" fill="rgb(224,229,239)" height="6" rx="3" ry="3" stroke="rgb(2,59,185)" stroke-width="1px" style="cursor: default; --darkreader-inline-fill: #c8d5e2; --darkreader-inline-stroke: #5eaafd;" visibility="hidden" width="6"/>
</g>
<g focusable="true" height="100" preserveAspectRatio="none" transform="translate(88,31) scale(1,1)" visibility="visible" width="100">
<rect data-darkreader-inline-fill="" data-darkreader-inline-stroke="" fill="rgb(252,235,192)" fill-opacity="0" height="24" rx="3.5999999999999996" ry="3.5999999999999996" stroke="rgb(241,163,39)" stroke-opacity="0" stroke-width="1px" style="cursor: move; --darkreader-inline-fill: #563f04; --darkreader-inline-stroke: #f2aa38;" width="152" x="-2" y="-3"/>
<line data-darkreader-inline-stroke="" stroke="#495879" stroke-opacity="1" stroke-width="1px" style="cursor: move; --darkreader-inline-stroke: #4a597b;" x1="0" x2="148" y1="18" y2="18"/>
<text data-darkreader-inline-fill="" fill="rgb(82,92,97)" font-family="verdana" font-size="10.75" font-style="normal" font-weight="normal" style="cursor: move; --darkreader-inline-fill: #afa99e;" visibility="visible" x="3" y="3">
<tspan dy="1em" x="3">Schutzdauer § 27 DesignG</tspan>
</text>
<ellipse cx="3" cy="3" data-darkreader-inline-fill="" data-darkreader-inline-stroke="" fill="rgb(224,229,239)" height="6" rx="3" ry="3" stroke="rgb(2,59,185)" stroke-width="1px" style="cursor: default; --darkreader-inline-fill: #c8d5e2; --darkreader-inline-stroke: #5eaafd;" visibility="hidden" width="6"/>
<g focusable="true" height="12" preserveAspectRatio="none" transform="translate(0,3) scale(0,0.12)" width="0"/>
</g>
<g focusable="true" height="100" preserveAspectRatio="none" transform="translate(-136,43) scale(1,1)" visibility="visible" width="100">
<rect data-darkreader-inline-fill="" data-darkreader-inline-stroke="" fill="rgb(252,235,192)" fill-opacity="0" height="24" rx="3.5999999999999996" ry="3.5999999999999996" stroke="rgb(241,163,39)" stroke-opacity="0" stroke-width="1px" style="cursor: move; --darkreader-inline-fill: #563f04; --darkreader-inline-stroke: #f2aa38;" width="52" x="-2" y="-3"/>
<line data-darkreader-inline-stroke="" stroke="#495879" stroke-opacity="1" stroke-width="1px" style="cursor: move; --darkreader-inline-stroke: #4a597b;" x1="0" x2="48" y1="18" y2="18"/>
<text data-darkreader-inline-fill="" fill="rgb(82,92,97)" font-family="verdana" font-size="10.75" font-style="normal" font-weight="normal" style="cursor: move; --darkreader-inline-fill: #afa99e;" visibility="visible" x="3" y="3">
<tspan dy="1em" x="3">Prüfung</tspan>
</text>
<ellipse cx="-3" cy="18" data-darkreader-inline-fill="" data-darkreader-inline-stroke="" fill="rgb(224,229,239)" height="6" rx="3" ry="3" stroke="rgb(2,59,185)" stroke-width="1px" style="cursor: default; --darkreader-inline-fill: #c8d5e2; --darkreader-inline-stroke: #5eaafd;" visibility="visible" width="6"/>
<g focusable="true" height="12" preserveAspectRatio="none" transform="translate(0,3) scale(0,0.12)" width="0"/>
</g>
<g focusable="true" height="100" preserveAspectRatio="none" transform="translate(-306,32) scale(1,1)" visibility="visible" width="100">
<rect data-darkreader-inline-fill="" data-darkreader-inline-stroke="" fill="rgb(252,235,192)" fill-opacity="0" height="21" rx="3.15" ry="3.15" stroke="rgb(241,163,39)" stroke-opacity="0" stroke-width="1px" style="cursor: move; --darkreader-inline-fill: #563f04; --darkreader-inline-stroke: #f2aa38;" width="144" x="-2" y="-3"/>
<line data-darkreader-inline-stroke="" stroke="#495879" stroke-opacity="1" stroke-width="1px" style="cursor: move; --darkreader-inline-stroke: #4a597b;" x1="0" x2="140" y1="15" y2="15"/>
<text data-darkreader-inline-fill="" fill="rgb(82,92,97)" font-family="verdana" font-size="8.0625" font-style="normal" font-weight="normal" style="cursor: move; --darkreader-inline-fill: #afa99e;" visibility="visible" x="3" y="3">
<tspan dy="1em" x="3">Formalprüfung § 16 DesignG</tspan>
</text>
<g focusable="true" height="9" preserveAspectRatio="none" transform="translate(0,3) scale(0,0.09)" width="0"/>
<ellipse cx="3" cy="3" data-darkreader-inline-fill="" data-darkreader-inline-stroke="" fill="rgb(224,229,239)" height="6" rx="3" ry="3" stroke="rgb(2,59,185)" stroke-width="1px" style="cursor: default; --darkreader-inline-fill: #c8d5e2; --darkreader-inline-stroke: #5eaafd;" visibility="hidden" width="6"/>
</g>
<g focusable="true" height="100" preserveAspectRatio="none" transform="translate(-496,57) scale(1,1)" visibility="visible" width="100">
<rect data-darkreader-inline-fill="" data-darkreader-inline-stroke="" fill="rgb(252,235,192)" fill-opacity="0" height="21" rx="3.15" ry="3.15" stroke="rgb(241,163,39)" stroke-opacity="0" stroke-width="1px" style="cursor: move; --darkreader-inline-fill: #563f04; --darkreader-inline-stroke: #f2aa38;" width="335" x="-2" y="-3"/>
<line data-darkreader-inline-stroke="" stroke="#495879" stroke-opacity="1" stroke-width="1px" style="cursor: move; --darkreader-inline-stroke: #4a597b;" x1="0" x2="331" y1="15" y2="15"/>
<text data-darkreader-inline-fill="" fill="rgb(82,92,97)" font-family="verdana" font-size="8.0625" font-style="normal" font-weight="normal" style="cursor: move; --darkreader-inline-fill: #afa99e;" visibility="visible" x="3" y="3">
<tspan dy="1em" x="3">Eintragungshindernisse § 1. Nr. 1 DesignG / § 3 (1) Nr. 3/ Nr. 4 DesignG</tspan>
</text>
<g focusable="true" height="9" preserveAspectRatio="none" transform="translate(0,3) scale(0,0.09)" width="0"/>
<ellipse cx="3" cy="3" data-darkreader-inline-fill="" data-darkreader-inline-stroke="" fill="rgb(224,229,239)" height="6" rx="3" ry="3" stroke="rgb(2,59,185)" stroke-width="1px" style="cursor: default; --darkreader-inline-fill: #c8d5e2; --darkreader-inline-stroke: #5eaafd;" visibility="hidden" width="6"/>
</g>
<rect data-darkreader-inline-fill="" data-darkreader-inline-stroke="" fill="#CC0033" fill-opacity="0.4" height="6" rx="0" ry="0" stroke="#FF9933" stroke-opacity="0.4" stroke-width="1px" style="--darkreader-inline-fill: #a30029; --darkreader-inline-stroke: #ff9e3d;" visibility="hidden" width="50" x="-261" y="12"/>
</svg>
