<?xml version="1.0" encoding="UTF-8" standalone="no"?>
<svg xmlns="http://www.w3.org/2000/svg" xmlns:xlink="http://www.w3.org/1999/xlink" focusable="true" height="209.0" id="workspace" preserveAspectRatio="xMinYMin" viewBox="-655.0 -95.0 1041.0 209.0" width="1041.0">
<path d="M0,0 C43,0 88,15 131,15 88,18 43,5 0,7 Z" fill="#495879" fill-opacity="1" stroke="#495879" stroke-opacity="1" stroke-width="1px" style="fill:#495879 " visibility="visible"/>
<path d="M-218,38 C-227,38 -238,58 -247,58" fill="#495879" fill-opacity="1" stroke="#495879" stroke-opacity="1" stroke-width="1px" style="fill:none " visibility="visible"/>
<rect data-darkreader-inline-fill="" data-darkreader-inline-stroke="" fill="#CC0033" fill-opacity="0.4" height="42" rx="0" ry="0" stroke="#FF9933" stroke-opacity="0.4" stroke-width="1px" style="--darkreader-inline-fill: #a30029; --darkreader-inline-stroke: #ff9e3d;" visibility="hidden" width="202" x="-101" y="-21"/>
<path d="M-466,-64 C-436.6666666666667,-44.33333333333334 -407.3333333333333,-24.666666666666654 -378,-5" data-darkreader-inline-fill="" data-darkreader-inline-stroke="" fill-opacity="0.4" stroke="#CC0033" stroke-opacity="0.4" stroke-width="1px" style="fill: none; --darkreader-inline-stroke: #ff3d6e; --darkreader-inline-fill: none;" visibility="hidden"/>
<path d="M-185,-44 C-123.33333333333334,-29.333333333333336 -61.666666666666664,-14.666666666666666 0,0" data-darkreader-inline-fill="" data-darkreader-inline-stroke="" fill-opacity="0.4" stroke="#CC0033" stroke-opacity="0.4" stroke-width="1px" style="fill: none; --darkreader-inline-stroke: #ff3d6e; --darkreader-inline-fill: none;" visibility="hidden"/>
<path d="M0,0 C-43,0 -87,38 -130,38 -87,41 -43,5 0,7 Z" fill="#495879" fill-opacity="1" stroke="#495879" stroke-opacity="1" stroke-width="1px" style="fill:#495879 " visibility="visible"/>
<path d="M-218,38 C-227,38 -238,33 -247,33" fill="#495879" fill-opacity="1" stroke="#495879" stroke-opacity="1" stroke-width="1px" style="fill:none " visibility="visible"/>
<path d="M-378,-5 C-387,-5 -397,-6 -406,-6" fill="#495879" fill-opacity="1" stroke="#495879" stroke-opacity="1" stroke-width="1px" style="fill:none " visibility="visible"/>
<path d="M-378,-5 C-387,-5 -398,20 -407,20" fill="#495879" fill-opacity="1" stroke="#495879" stroke-opacity="1" stroke-width="1px" style="fill:none " visibility="visible"/>
<path d="M-378,-5 C-387,-5 -398,-30 -407,-30" fill="#495879" fill-opacity="1" stroke="#495879" stroke-opacity="1" stroke-width="1px" style="fill:none " visibility="visible"/>
<path d="M-288,-15 C-297,-15 -308,-5 -317,-5" fill="#495879" fill-opacity="1" stroke="#495879" stroke-opacity="1" stroke-width="1px" style="fill:none " visibility="visible"/>
<path d="M0,0 C-43,0 -88,-15 -131,-15 -88,-12 -43,5 0,7 Z" fill="#495879" fill-opacity="1" stroke="#495879" stroke-opacity="1" stroke-width="1px" style="fill:#495879 " visibility="visible"/>
<path d="M0,0 C43,0 88,-14 131,-14 88,-11 43,5 0,7 Z" fill="#495879" fill-opacity="1" stroke="#495879" stroke-opacity="1" stroke-width="1px" style="fill:#495879 " visibility="visible"/>
<g focusable="true" height="100" preserveAspectRatio="none" transform="translate(-99,-19) scale(1,1)" visibility="visible" width="100">
<rect data-darkreader-inline-fill="" data-darkreader-inline-stroke="" fill="rgb(252,235,192)" fill-opacity="0" height="44" rx="6.6" ry="6.6" stroke="rgb(241,163,39)" stroke-opacity="0" stroke-width="1px" style="cursor: default; --darkreader-inline-fill: #563f04; --darkreader-inline-stroke: #f2aa38;" width="202" x="-2" y="-3"/>
<rect data-darkreader-inline-fill="" data-darkreader-inline-stroke="" fill="rgb(80,157,192)" height="38" rx="5.7" ry="5.7" stroke="rgb(57,113,177)" stroke-width="2px" style="cursor: default; --darkreader-inline-fill: #33728f; --darkreader-inline-stroke: #6ea3d0;" width="198" x="0" y="0"/>
<text data-darkreader-inline-fill="" fill="#ffffff" font-family="verdana" font-size="13.4375" font-style="normal" font-weight="bold" style="cursor: default; --darkreader-inline-fill: #e8e6e3;" visibility="visible" x="11" y="11">
<tspan dy="1em" x="11">Gebrauchsmusterrecht</tspan>
</text>
<g focusable="true" height="16" preserveAspectRatio="none" transform="translate(0,11) scale(0,0.16)" width="0"/>
</g>
<g focusable="true" height="100" preserveAspectRatio="none" transform="translate(129,-23) scale(1,1)" visibility="visible" width="100">
<rect data-darkreader-inline-fill="" data-darkreader-inline-stroke="" fill="rgb(252,235,192)" fill-opacity="0" height="25" rx="3.75" ry="3.75" stroke="rgb(241,163,39)" stroke-opacity="0" stroke-width="1px" style="cursor: move; --darkreader-inline-fill: #563f04; --darkreader-inline-stroke: #f2aa38;" width="207" x="-2" y="-3"/>
<rect data-darkreader-inline-fill="" data-darkreader-inline-stroke="" fill="rgb(224,229,239)" height="19" rx="2.85" ry="2.85" stroke="rgb(2,59,185)" stroke-width="2px" style="cursor: move; --darkreader-inline-fill: #25282a; --darkreader-inline-stroke: #5eaafd;" width="203" x="0" y="0"/>
<text data-darkreader-inline-fill="" fill="rgb(82,92,97)" font-family="verdana" font-size="10.75" font-style="normal" font-weight="normal" style="cursor: move; --darkreader-inline-fill: #afa99e;" visibility="visible" x="3" y="3">
<tspan dy="1em" x="3">Keine Prüfung § 8 (1) Satz 2 GebrMG</tspan>
</text>
<g focusable="true" height="13" preserveAspectRatio="none" transform="translate(0,3) scale(0,0.13)" width="0"/>
<ellipse cx="3" cy="3" data-darkreader-inline-fill="" data-darkreader-inline-stroke="" fill="rgb(224,229,239)" height="6" rx="3" ry="3" stroke="rgb(2,59,185)" stroke-width="1px" style="cursor: default; --darkreader-inline-fill: #c8d5e2; --darkreader-inline-stroke: #5eaafd;" visibility="hidden" width="6"/>
</g>
<g focusable="true" height="100" preserveAspectRatio="none" transform="translate(-287,-24) scale(1,1)" visibility="visible" width="100">
<rect data-darkreader-inline-fill="" data-darkreader-inline-stroke="" fill="rgb(252,235,192)" fill-opacity="0" height="25" rx="3.75" ry="3.75" stroke="rgb(241,163,39)" stroke-opacity="0" stroke-width="1px" style="cursor: move; --darkreader-inline-fill: #563f04; --darkreader-inline-stroke: #f2aa38;" width="162" x="-2" y="-3"/>
<rect data-darkreader-inline-fill="" data-darkreader-inline-stroke="" fill="rgb(224,229,239)" height="19" rx="2.85" ry="2.85" stroke="rgb(2,59,185)" stroke-width="2px" style="cursor: move; --darkreader-inline-fill: #25282a; --darkreader-inline-stroke: #5eaafd;" width="158" x="0" y="0"/>
<text data-darkreader-inline-fill="" fill="rgb(82,92,97)" font-family="verdana" font-size="10.75" font-style="normal" font-weight="normal" style="cursor: move; --darkreader-inline-fill: #afa99e;" visibility="visible" x="3" y="3">
<tspan dy="1em" x="3">Gebrauchsmuster § 1 Abs. 1</tspan>
</text>
<g focusable="true" height="13" preserveAspectRatio="none" transform="translate(0,3) scale(0,0.13)" width="0"/>
<ellipse cx="-3" cy="9.5" data-darkreader-inline-fill="" data-darkreader-inline-stroke="" fill="rgb(224,229,239)" height="6" rx="3" ry="3" stroke="rgb(2,59,185)" stroke-width="1px" style="cursor: default; --darkreader-inline-fill: #c8d5e2; --darkreader-inline-stroke: #5eaafd;" visibility="visible" width="6"/>
</g>
<g focusable="true" height="100" preserveAspectRatio="none" transform="translate(-377,-20) scale(1,1)" visibility="visible" width="100">
<rect data-darkreader-inline-fill="" data-darkreader-inline-stroke="" fill="rgb(252,235,192)" fill-opacity="0" height="21" rx="3.15" ry="3.15" stroke="rgb(241,163,39)" stroke-opacity="0" stroke-width="1px" style="cursor: move; --darkreader-inline-fill: #563f04; --darkreader-inline-stroke: #f2aa38;" width="64" x="-2" y="-3"/>
<line data-darkreader-inline-stroke="" stroke="#495879" stroke-opacity="1" stroke-width="1px" style="cursor: move; --darkreader-inline-stroke: #4a597b;" x1="0" x2="60" y1="15" y2="15"/>
<text data-darkreader-inline-fill="" fill="rgb(82,92,97)" font-family="verdana" font-size="8.0625" font-style="normal" font-weight="normal" style="cursor: move; --darkreader-inline-fill: #afa99e;" visibility="visible" x="3" y="3">
<tspan dy="1em" x="3">Ausnahmen</tspan>
</text>
<g focusable="true" height="9" preserveAspectRatio="none" transform="translate(0,3) scale(0,0.09)" width="0"/>
<ellipse cx="-3" cy="15" data-darkreader-inline-fill="" data-darkreader-inline-stroke="" fill="rgb(224,229,239)" height="6" rx="3" ry="3" stroke="rgb(2,59,185)" stroke-width="1px" style="cursor: default; --darkreader-inline-fill: #c8d5e2; --darkreader-inline-stroke: #5eaafd;" visibility="visible" width="6"/>
</g>
<g focusable="true" height="100" preserveAspectRatio="none" transform="translate(-605,-45) scale(1,1)" visibility="visible" width="100">
<rect data-darkreader-inline-fill="" data-darkreader-inline-stroke="" fill="rgb(252,235,192)" fill-opacity="0" height="21" rx="3.15" ry="3.15" stroke="rgb(241,163,39)" stroke-opacity="0" stroke-width="1px" style="cursor: move; --darkreader-inline-fill: #563f04; --darkreader-inline-stroke: #f2aa38;" width="202" x="-2" y="-3"/>
<line data-darkreader-inline-stroke="" stroke="#495879" stroke-opacity="1" stroke-width="1px" style="cursor: move; --darkreader-inline-stroke: #4a597b;" visibility="visible" x1="0" x2="198" y1="15" y2="15"/>
<text data-darkreader-inline-fill="" fill="rgb(82,92,97)" font-family="verdana" font-size="8.0625" font-style="normal" font-weight="normal" style="cursor: move; --darkreader-inline-fill: #afa99e;" visibility="visible" x="3" y="3">
<tspan dy="1em" x="3">Keine Biotech. Erfindungen § 1 Abs. 2 PatG</tspan>
</text>
<ellipse cx="3" cy="3" data-darkreader-inline-fill="" data-darkreader-inline-stroke="" fill="rgb(224,229,239)" height="6" rx="3" ry="3" stroke="rgb(2,59,185)" stroke-width="1px" style="cursor: default; --darkreader-inline-fill: #c8d5e2; --darkreader-inline-stroke: #5eaafd;" visibility="hidden" width="6"/>
<g focusable="true" height="9" preserveAspectRatio="none" transform="translate(0,3) scale(0,0.09)" width="0"/>
</g>
<g focusable="true" height="100" preserveAspectRatio="none" transform="translate(-427,4) scale(1,1)" visibility="visible" width="100">
<rect data-darkreader-inline-fill="" data-darkreader-inline-stroke="" fill="rgb(252,235,192)" fill-opacity="0" height="22" rx="3.3" ry="3.3" stroke="rgb(241,163,39)" stroke-opacity="0" stroke-width="1px" style="cursor: move; --darkreader-inline-fill: #fbe2a2; --darkreader-inline-stroke: #f2aa38;" width="24" x="-2" y="-3"/>
<line data-darkreader-inline-stroke="" stroke="#495879" stroke-opacity="1" stroke-width="1px" style="cursor: move; --darkreader-inline-stroke: #4a597b;" visibility="visible" x1="0" x2="20" y1="16" y2="16"/>
<text data-darkreader-inline-fill="" fill="rgb(82,92,97)" font-family="verdana" font-size="8.0625" font-style="normal" font-weight="normal" style="cursor: move; --darkreader-inline-fill: #afa99e;" visibility="visible" x="3" y="3">
<tspan dy="1em" x="3">...</tspan>
</text>
<ellipse cx="-3" cy="16" data-darkreader-inline-fill="" data-darkreader-inline-stroke="" fill="rgb(224,229,239)" height="6" rx="3" ry="3" stroke="rgb(2,59,185)" stroke-width="1px" style="cursor: default; --darkreader-inline-fill: #c8d5e2; --darkreader-inline-stroke: #5eaafd;" visibility="hidden" width="6"/>
<g focusable="true" height="10" preserveAspectRatio="none" transform="translate(0,3) scale(0,0.1)" width="0"/>
</g>
<g focusable="true" height="100" preserveAspectRatio="none" transform="translate(-565,-21) scale(1,1)" visibility="visible" width="100">
<rect data-darkreader-inline-fill="" data-darkreader-inline-stroke="" fill="rgb(252,235,192)" fill-opacity="0" height="21" rx="3.15" ry="3.15" stroke="rgb(241,163,39)" stroke-opacity="0" stroke-width="1px" style="cursor: move; --darkreader-inline-fill: #563f04; --darkreader-inline-stroke: #f2aa38;" width="163" x="-2" y="-3"/>
<line data-darkreader-inline-stroke="" stroke="#495879" stroke-opacity="1" stroke-width="1px" style="cursor: move; --darkreader-inline-stroke: #4a597b;" visibility="visible" x1="0" x2="159" y1="15" y2="15"/>
<text data-darkreader-inline-fill="" fill="rgb(82,92,97)" font-family="verdana" font-size="8.0625" font-style="normal" font-weight="normal" style="cursor: move; --darkreader-inline-fill: #afa99e;" visibility="visible" x="3" y="3">
<tspan dy="1em" x="3">Keine Verfahren § 2 Abs. 3 PatG</tspan>
</text>
<ellipse cx="3" cy="3" data-darkreader-inline-fill="" data-darkreader-inline-stroke="" fill="rgb(224,229,239)" height="6" rx="3" ry="3" stroke="rgb(2,59,185)" stroke-width="1px" style="cursor: default; --darkreader-inline-fill: #c8d5e2; --darkreader-inline-stroke: #5eaafd;" visibility="hidden" width="6"/>
<g focusable="true" height="9" preserveAspectRatio="none" transform="translate(0,3) scale(0,0.09)" width="0"/>
</g>
<g focusable="true" height="100" preserveAspectRatio="none" transform="translate(-444,18) scale(1,1)" visibility="visible" width="100">
<rect data-darkreader-inline-fill="" data-darkreader-inline-stroke="" fill="rgb(252,235,192)" fill-opacity="0" height="21" rx="3.15" ry="3.15" stroke="rgb(241,163,39)" stroke-opacity="0" stroke-width="1px" style="cursor: move; --darkreader-inline-fill: #563f04; --darkreader-inline-stroke: #f2aa38;" width="201" x="-2" y="-3"/>
<line data-darkreader-inline-stroke="" stroke="#495879" stroke-opacity="1" stroke-width="1px" style="cursor: move; --darkreader-inline-stroke: #4a597b;" x1="0" x2="197" y1="15" y2="15"/>
<text data-darkreader-inline-fill="" fill="rgb(82,92,97)" font-family="verdana" font-size="8.0625" font-style="normal" font-weight="normal" style="cursor: move; --darkreader-inline-fill: #afa99e;" visibility="visible" x="3" y="3">
<tspan dy="1em" x="3">Neuheitsschonfrist § 3(1) Satz 3 GebrMG</tspan>
</text>
<g focusable="true" height="9" preserveAspectRatio="none" transform="translate(0,3) scale(0,0.09)" width="0"/>
<ellipse cx="3" cy="3" data-darkreader-inline-fill="" data-darkreader-inline-stroke="" fill="rgb(224,229,239)" height="6" rx="3" ry="3" stroke="rgb(2,59,185)" stroke-width="1px" style="cursor: default; --darkreader-inline-fill: #c8d5e2; --darkreader-inline-stroke: #5eaafd;" visibility="hidden" width="6"/>
</g>
<g focusable="true" height="100" preserveAspectRatio="none" transform="translate(-217,28) scale(1,1)" visibility="visible" width="100">
<rect data-darkreader-inline-fill="" data-darkreader-inline-stroke="" fill="rgb(252,235,192)" fill-opacity="0" height="25" rx="3.75" ry="3.75" stroke="rgb(241,163,39)" stroke-opacity="0" stroke-width="1px" style="cursor: move; --darkreader-inline-fill: #563f04; --darkreader-inline-stroke: #f2aa38;" width="93" x="-2" y="-3"/>
<rect data-darkreader-inline-fill="" data-darkreader-inline-stroke="" fill="rgb(224,229,239)" height="19" rx="2.85" ry="2.85" stroke="rgb(2,59,185)" stroke-width="2px" style="cursor: move; --darkreader-inline-fill: #25282a; --darkreader-inline-stroke: #5eaafd;" width="89" x="0" y="0"/>
<text data-darkreader-inline-fill="" fill="rgb(82,92,97)" font-family="verdana" font-size="10.75" font-style="normal" font-weight="normal" style="cursor: move; --darkreader-inline-fill: #afa99e;" visibility="visible" x="3" y="3">
<tspan dy="1em" x="3">Neuheitsbegriff</tspan>
</text>
<g focusable="true" height="13" preserveAspectRatio="none" transform="translate(0,3) scale(0,0.13)" width="0"/>
<ellipse cx="-3" cy="9.5" data-darkreader-inline-fill="" data-darkreader-inline-stroke="" fill="rgb(224,229,239)" height="6" rx="3" ry="3" stroke="rgb(2,59,185)" stroke-width="1px" style="cursor: default; --darkreader-inline-fill: #c8d5e2; --darkreader-inline-stroke: #5eaafd;" visibility="visible" width="6"/>
</g>
<g focusable="true" height="100" preserveAspectRatio="none" transform="translate(-459,43) scale(1,1)" visibility="visible" width="100">
<rect data-darkreader-inline-fill="" data-darkreader-inline-stroke="" fill="rgb(252,235,192)" fill-opacity="0" height="21" rx="3.15" ry="3.15" stroke="rgb(241,163,39)" stroke-opacity="0" stroke-width="1px" style="cursor: move; --darkreader-inline-fill: #563f04; --darkreader-inline-stroke: #f2aa38;" width="216" x="-2" y="-3"/>
<line data-darkreader-inline-stroke="" stroke="#495879" stroke-opacity="1" stroke-width="1px" style="cursor: move; --darkreader-inline-stroke: #4a597b;" x1="0" x2="212" y1="15" y2="15"/>
<text data-darkreader-inline-fill="" fill="rgb(82,92,97)" font-family="verdana" font-size="8.0625" font-style="normal" font-weight="normal" style="cursor: move; --darkreader-inline-fill: #afa99e;" visibility="visible" x="3" y="3">
<tspan dy="1em" x="3">Erweiterter Neuheitsbegriff § 31 Satz 2 GebrMG</tspan>
</text>
<g focusable="true" height="9" preserveAspectRatio="none" transform="translate(0,3) scale(0,0.09)" width="0"/>
<ellipse cx="3" cy="3" data-darkreader-inline-fill="" data-darkreader-inline-stroke="" fill="rgb(224,229,239)" height="6" rx="3" ry="3" stroke="rgb(2,59,185)" stroke-width="1px" style="cursor: default; --darkreader-inline-fill: #c8d5e2; --darkreader-inline-stroke: #5eaafd;" visibility="hidden" width="6"/>
</g>
<g focusable="true" height="100" preserveAspectRatio="none" transform="translate(129,5) scale(1,1)" visibility="visible" width="100">
<rect data-darkreader-inline-fill="" data-darkreader-inline-stroke="" fill="rgb(252,235,192)" fill-opacity="0" height="25" rx="3.75" ry="3.75" stroke="rgb(241,163,39)" stroke-opacity="0" stroke-width="1px" style="cursor: move; --darkreader-inline-fill: #563f04; --darkreader-inline-stroke: #f2aa38;" width="147" x="-2" y="-3"/>
<rect data-darkreader-inline-fill="" data-darkreader-inline-stroke="" fill="rgb(224,229,239)" height="19" rx="2.85" ry="2.85" stroke="rgb(2,59,185)" stroke-width="2px" style="cursor: move; --darkreader-inline-fill: #25282a; --darkreader-inline-stroke: #5eaafd;" width="143" x="0" y="0"/>
<text data-darkreader-inline-fill="" fill="rgb(82,92,97)" font-family="verdana" font-size="10.75" font-style="normal" font-weight="normal" style="cursor: move; --darkreader-inline-fill: #afa99e;" visibility="visible" x="3" y="3">
<tspan dy="1em" x="3">Abzweigung § 5 GebrMG</tspan>
</text>
<g focusable="true" height="13" preserveAspectRatio="none" transform="translate(0,3) scale(0,0.13)" width="0"/>
<ellipse cx="3" cy="3" data-darkreader-inline-fill="" data-darkreader-inline-stroke="" fill="rgb(224,229,239)" height="6" rx="3" ry="3" stroke="rgb(2,59,185)" stroke-width="1px" style="cursor: default; --darkreader-inline-fill: #c8d5e2; --darkreader-inline-stroke: #5eaafd;" visibility="hidden" width="6"/>
</g>
<rect data-darkreader-inline-fill="" data-darkreader-inline-stroke="" fill="#CC0033" fill-opacity="0.4" height="6" rx="0" ry="0" stroke="#FF9933" stroke-opacity="0.4" stroke-width="1px" style="--darkreader-inline-fill: #a30029; --darkreader-inline-stroke: #ff9e3d;" visibility="hidden" width="50" x="-233" y="-47"/>
</svg>
