<?xml version="1.0" encoding="UTF-8" standalone="no"?>
<svg xmlns="http://www.w3.org/2000/svg" xmlns:xlink="http://www.w3.org/1999/xlink" focusable="true" height="220.0" id="workspace" preserveAspectRatio="xMinYMin" viewBox="-515.0 -107.0 1116.0 220.0" width="1116.0">
<path d="M0,0 C30,0 61,47 91,47 61,50 30,5 0,7 Z" fill="#495879" fill-opacity="1" stroke="#495879" stroke-opacity="1" stroke-width="1px" style="fill:#495879 " visibility="visible"/>
<rect data-darkreader-inline-fill="" data-darkreader-inline-stroke="" fill="#CC0033" fill-opacity="0.4" height="42" rx="0" ry="0" stroke="#FF9933" stroke-opacity="0.4" stroke-width="1px" style="--darkreader-inline-fill: #a30029; --darkreader-inline-stroke: #ff9e3d;" visibility="hidden" width="125" x="-62" y="-21"/>
<path d="M345,0 C310.3333333333333,16.00000000000001 275.6666666666667,31.99999999999999 241,48" data-darkreader-inline-fill="" data-darkreader-inline-stroke="" fill-opacity="0.4" stroke="#CC0033" stroke-opacity="0.4" stroke-width="1px" style="fill: none; --darkreader-inline-stroke: #ff3d6e; --darkreader-inline-fill: none;" visibility="hidden"/>
<path d="M161,29 C107.33333333333334,19.333333333333336 53.66666666666666,9.666666666666666 0,0" data-darkreader-inline-fill="" data-darkreader-inline-stroke="" fill-opacity="0.4" stroke="#CC0033" stroke-opacity="0.4" stroke-width="1px" style="fill: none; --darkreader-inline-stroke: #ff3d6e; --darkreader-inline-fill: none;" visibility="hidden"/>
<path d="M250,48 C259,48 269,57 278,57" fill="#495879" fill-opacity="1" stroke="#495879" stroke-opacity="1" stroke-width="1px" style="fill:none " visibility="visible"/>
<path d="M250,48 C259,48 269,32 278,32" fill="#495879" fill-opacity="1" stroke="#495879" stroke-opacity="1" stroke-width="1px" style="fill:none " visibility="visible"/>
<path d="M-240,10 C-249,10 -260,20 -269,20" fill="#495879" fill-opacity="1" stroke="#495879" stroke-opacity="1" stroke-width="1px" style="fill:none " visibility="visible"/>
<path d="M-240,10 C-249,10 -260,-4 -269,-4" fill="#495879" fill-opacity="1" stroke="#495879" stroke-opacity="1" stroke-width="1px" style="fill:none " visibility="visible"/>
<path d="M0,0 C-30,0 -60,10 -90,10 -60,13 -30,5 0,7 Z" fill="#495879" fill-opacity="1" stroke="#495879" stroke-opacity="1" stroke-width="1px" style="fill:#495879 " visibility="visible"/>
<path d="M354,-42 C363,-42 374,-42 383,-42" fill="#495879" fill-opacity="1" stroke="#495879" stroke-opacity="1" stroke-width="1px" style="fill:none " visibility="visible"/>
<path d="M279,-15 C288,-15 298,-17 307,-17" fill="#495879" fill-opacity="1" stroke="#495879" stroke-opacity="1" stroke-width="1px" style="fill:none " visibility="visible"/>
<path d="M279,-15 C288,-15 299,8 308,8" fill="#495879" fill-opacity="1" stroke="#495879" stroke-opacity="1" stroke-width="1px" style="fill:none " visibility="visible"/>
<path d="M279,-15 C288,-15 298,-42 307,-42" fill="#495879" fill-opacity="1" stroke="#495879" stroke-opacity="1" stroke-width="1px" style="fill:none " visibility="visible"/>
<path d="M0,0 C30,0 60,-15 90,-15 60,-12 30,5 0,7 Z" fill="#495879" fill-opacity="1" stroke="#495879" stroke-opacity="1" stroke-width="1px" style="fill:#495879 " visibility="visible"/>
<g focusable="true" height="100" preserveAspectRatio="none" transform="translate(-60,-19) scale(1,1)" visibility="visible" width="100">
<rect data-darkreader-inline-fill="" data-darkreader-inline-stroke="" fill="rgb(252,235,192)" fill-opacity="0" height="44" rx="6.6" ry="6.6" stroke="rgb(241,163,39)" stroke-opacity="0" stroke-width="1px" style="cursor: default; --darkreader-inline-fill: #563f04; --darkreader-inline-stroke: #f2aa38;" width="125" x="-2" y="-3"/>
<rect data-darkreader-inline-fill="" data-darkreader-inline-stroke="" fill="rgb(80,157,192)" height="38" rx="5.7" ry="5.7" stroke="rgb(57,113,177)" stroke-width="2px" style="cursor: default; --darkreader-inline-fill: #33728f; --darkreader-inline-stroke: #6ea3d0;" width="121" x="0" y="0"/>
<text data-darkreader-inline-fill="" fill="#ffffff" font-family="verdana" font-size="13.4375" font-style="normal" font-weight="bold" style="cursor: default; --darkreader-inline-fill: #e8e6e3;" visibility="visible" x="11" y="11">
<tspan dy="1em" x="11">Markenrecht</tspan>
</text>
<g focusable="true" height="16" preserveAspectRatio="none" transform="translate(0,11) scale(0,0.16)" width="0"/>
</g>
<g focusable="true" height="100" preserveAspectRatio="none" transform="translate(90,-34) scale(1,1)" visibility="visible" width="100">
<rect data-darkreader-inline-fill="" data-darkreader-inline-stroke="" fill="rgb(252,235,192)" fill-opacity="0" height="25" rx="3.75" ry="3.75" stroke="rgb(241,163,39)" stroke-opacity="0" stroke-width="1px" style="cursor: move; --darkreader-inline-fill: #563f04; --darkreader-inline-stroke: #f2aa38;" width="191" x="-2" y="-3"/>
<line data-darkreader-inline-stroke="" stroke="#495879" stroke-opacity="1" stroke-width="1px" style="cursor: move; --darkreader-inline-stroke: #4a597b;" x1="0" x2="187" y1="19" y2="19"/>
<text data-darkreader-inline-fill="" fill="rgb(82,92,97)" font-family="verdana" font-size="10.75" font-style="normal" font-weight="normal" style="cursor: move; --darkreader-inline-fill: #afa99e;" visibility="visible" x="3" y="3">
<tspan dy="1em" x="3">Was wird geschützt? § 1 MarkenG</tspan>
</text>
<ellipse cx="190" cy="19" data-darkreader-inline-fill="" data-darkreader-inline-stroke="" fill="rgb(224,229,239)" height="6" rx="3" ry="3" stroke="rgb(2,59,185)" stroke-width="1px" style="cursor: default; --darkreader-inline-fill: #c8d5e2; --darkreader-inline-stroke: #5eaafd;" visibility="visible" width="6"/>
<g focusable="true" height="13" preserveAspectRatio="none" transform="translate(0,3) scale(0,0.13)" width="0"/>
</g>
<g focusable="true" height="100" preserveAspectRatio="none" transform="translate(307,-32) scale(1,1)" visibility="visible" width="100">
<rect data-darkreader-inline-fill="" data-darkreader-inline-stroke="" fill="rgb(252,235,192)" fill-opacity="0" height="21" rx="3.15" ry="3.15" stroke="rgb(241,163,39)" stroke-opacity="0" stroke-width="1px" style="cursor: move; --darkreader-inline-fill: #563f04; --darkreader-inline-stroke: #f2aa38;" width="151" x="-2" y="-3"/>
<line data-darkreader-inline-stroke="" stroke="#495879" stroke-opacity="1" stroke-width="1px" style="cursor: move; --darkreader-inline-stroke: #4a597b;" x1="0" x2="147" y1="15" y2="15"/>
<text data-darkreader-inline-fill="" fill="rgb(82,92,97)" font-family="verdana" font-size="8.0625" font-style="normal" font-weight="normal" style="cursor: move; --darkreader-inline-fill: #afa99e;" visibility="visible" x="3" y="3">
<tspan dy="1em" x="3">geographische Bezeichnungen</tspan>
</text>
<g focusable="true" height="9" preserveAspectRatio="none" transform="translate(0,3) scale(0,0.09)" width="0"/>
<ellipse cx="3" cy="3" data-darkreader-inline-fill="" data-darkreader-inline-stroke="" fill="rgb(224,229,239)" height="6" rx="3" ry="3" stroke="rgb(2,59,185)" stroke-width="1px" style="cursor: default; --darkreader-inline-fill: #c8d5e2; --darkreader-inline-stroke: #5eaafd;" visibility="hidden" width="6"/>
</g>
<g focusable="true" height="100" preserveAspectRatio="none" transform="translate(307,-57) scale(1,1)" visibility="visible" width="100">
<rect data-darkreader-inline-fill="" data-darkreader-inline-stroke="" fill="rgb(252,235,192)" fill-opacity="0" height="21" rx="3.15" ry="3.15" stroke="rgb(241,163,39)" stroke-opacity="0" stroke-width="1px" style="cursor: move; --darkreader-inline-fill: #563f04; --darkreader-inline-stroke: #f2aa38;" width="49" x="-2" y="-3"/>
<line data-darkreader-inline-stroke="" stroke="#495879" stroke-opacity="1" stroke-width="1px" style="cursor: move; --darkreader-inline-stroke: #4a597b;" x1="0" x2="45" y1="15" y2="15"/>
<text data-darkreader-inline-fill="" fill="rgb(82,92,97)" font-family="verdana" font-size="8.0625" font-style="normal" font-weight="normal" style="cursor: move; --darkreader-inline-fill: #afa99e;" visibility="visible" x="3" y="3">
<tspan dy="1em" x="3">Marken</tspan>
</text>
<g focusable="true" height="9" preserveAspectRatio="none" transform="translate(0,3) scale(0,0.09)" width="0"/>
<ellipse cx="48" cy="15" data-darkreader-inline-fill="" data-darkreader-inline-stroke="" fill="rgb(224,229,239)" height="6" rx="3" ry="3" stroke="rgb(2,59,185)" stroke-width="1px" style="cursor: default; --darkreader-inline-fill: #c8d5e2; --darkreader-inline-stroke: #5eaafd;" visibility="visible" width="6"/>
</g>
<g focusable="true" height="100" preserveAspectRatio="none" transform="translate(308,-7) scale(1,1)" visibility="visible" width="100">
<rect data-darkreader-inline-fill="" data-darkreader-inline-stroke="" fill="rgb(252,235,192)" fill-opacity="0" height="21" rx="3.15" ry="3.15" stroke="rgb(241,163,39)" stroke-opacity="0" stroke-width="1px" style="cursor: move; --darkreader-inline-fill: #563f04; --darkreader-inline-stroke: #f2aa38;" width="144" x="-2" y="-3"/>
<line data-darkreader-inline-stroke="" stroke="#495879" stroke-opacity="1" stroke-width="1px" style="cursor: move; --darkreader-inline-stroke: #4a597b;" x1="0" x2="140" y1="15" y2="15"/>
<text data-darkreader-inline-fill="" fill="rgb(82,92,97)" font-family="verdana" font-size="8.0625" font-style="normal" font-weight="normal" style="cursor: move; --darkreader-inline-fill: #afa99e;" visibility="visible" x="3" y="3">
<tspan dy="1em" x="3">geschäftliche Bezeichnungen</tspan>
</text>
<g focusable="true" height="9" preserveAspectRatio="none" transform="translate(0,3) scale(0,0.09)" width="0"/>
<ellipse cx="3" cy="3" data-darkreader-inline-fill="" data-darkreader-inline-stroke="" fill="rgb(224,229,239)" height="6" rx="3" ry="3" stroke="rgb(2,59,185)" stroke-width="1px" style="cursor: default; --darkreader-inline-fill: #c8d5e2; --darkreader-inline-stroke: #5eaafd;" visibility="hidden" width="6"/>
</g>
<g focusable="true" height="100" preserveAspectRatio="none" transform="translate(383,-57) scale(1,1)" visibility="visible" width="100">
<rect data-darkreader-inline-fill="" data-darkreader-inline-stroke="" fill="rgb(252,235,192)" fill-opacity="0" height="21" rx="3.15" ry="3.15" stroke="rgb(241,163,39)" stroke-opacity="0" stroke-width="1px" style="cursor: move; --darkreader-inline-fill: #563f04; --darkreader-inline-stroke: #f2aa38;" width="168" x="-2" y="-3"/>
<line data-darkreader-inline-stroke="" stroke="#495879" stroke-opacity="1" stroke-width="1px" style="cursor: move; --darkreader-inline-stroke: #4a597b;" x1="0" x2="164" y1="15" y2="15"/>
<text data-darkreader-inline-fill="" fill="rgb(82,92,97)" font-family="verdana" font-size="8.0625" font-style="normal" font-weight="normal" style="cursor: move; --darkreader-inline-fill: #afa99e;" visibility="visible" x="3" y="3">
<tspan dy="1em" x="3">Schutzfähige Marken § 3 MarkenG</tspan>
</text>
<g focusable="true" height="9" preserveAspectRatio="none" transform="translate(0,3) scale(0,0.09)" width="0"/>
<ellipse cx="3" cy="3" data-darkreader-inline-fill="" data-darkreader-inline-stroke="" fill="rgb(224,229,239)" height="6" rx="3" ry="3" stroke="rgb(2,59,185)" stroke-width="1px" style="cursor: default; --darkreader-inline-fill: #c8d5e2; --darkreader-inline-stroke: #5eaafd;" visibility="hidden" width="6"/>
</g>
<g focusable="true" height="100" preserveAspectRatio="none" transform="translate(-239,-9) scale(1,1)" visibility="visible" width="100">
<rect data-darkreader-inline-fill="" data-darkreader-inline-stroke="" fill="rgb(252,235,192)" fill-opacity="0" height="25" rx="3.75" ry="3.75" stroke="rgb(241,163,39)" stroke-opacity="0" stroke-width="1px" style="cursor: move; --darkreader-inline-fill: #563f04; --darkreader-inline-stroke: #f2aa38;" width="153" x="-2" y="-3"/>
<line data-darkreader-inline-stroke="" stroke="#495879" stroke-opacity="1" stroke-width="1px" style="cursor: move; --darkreader-inline-stroke: #4a597b;" x1="0" x2="149" y1="19" y2="19"/>
<text data-darkreader-inline-fill="" fill="rgb(82,92,97)" font-family="verdana" font-size="10.75" font-style="normal" font-weight="normal" style="cursor: move; --darkreader-inline-fill: #afa99e;" visibility="visible" x="3" y="3">
<tspan dy="1em" x="3">Widerspruch § 42 MarkenG</tspan>
</text>
<ellipse cx="-3" cy="19" data-darkreader-inline-fill="" data-darkreader-inline-stroke="" fill="rgb(224,229,239)" height="6" rx="3" ry="3" stroke="rgb(2,59,185)" stroke-width="1px" style="cursor: default; --darkreader-inline-fill: #c8d5e2; --darkreader-inline-stroke: #5eaafd;" visibility="visible" width="6"/>
<g focusable="true" height="13" preserveAspectRatio="none" transform="translate(0,3) scale(0,0.13)" width="0"/>
</g>
<g focusable="true" height="100" preserveAspectRatio="none" transform="translate(-465,-19) scale(1,1)" visibility="visible" width="100">
<rect data-darkreader-inline-fill="" data-darkreader-inline-stroke="" fill="rgb(252,235,192)" fill-opacity="0" height="21" rx="3.15" ry="3.15" stroke="rgb(241,163,39)" stroke-opacity="0" stroke-width="1px" style="cursor: move; --darkreader-inline-fill: #563f04; --darkreader-inline-stroke: #f2aa38;" width="200" x="-2" y="-3"/>
<line data-darkreader-inline-stroke="" stroke="#495879" stroke-opacity="1" stroke-width="1px" style="cursor: move; --darkreader-inline-stroke: #4a597b;" x1="0" x2="196" y1="15" y2="15"/>
<text data-darkreader-inline-fill="" fill="rgb(82,92,97)" font-family="verdana" font-size="8.0625" font-style="normal" font-weight="normal" style="cursor: move; --darkreader-inline-fill: #afa99e;" visibility="visible" x="3" y="3">
<tspan dy="1em" x="3">Inhaber älterer Rechte § 4 / § 5 MarkenG</tspan>
</text>
<g focusable="true" height="9" preserveAspectRatio="none" transform="translate(0,3) scale(0,0.09)" width="0"/>
<ellipse cx="3" cy="3" data-darkreader-inline-fill="" data-darkreader-inline-stroke="" fill="rgb(224,229,239)" height="6" rx="3" ry="3" stroke="rgb(2,59,185)" stroke-width="1px" style="cursor: default; --darkreader-inline-fill: #c8d5e2; --darkreader-inline-stroke: #5eaafd;" visibility="hidden" width="6"/>
</g>
<g focusable="true" height="100" preserveAspectRatio="none" transform="translate(-460,5) scale(1,1)" visibility="visible" width="100">
<rect data-darkreader-inline-fill="" data-darkreader-inline-stroke="" fill="rgb(252,235,192)" fill-opacity="0" height="21" rx="3.15" ry="3.15" stroke="rgb(241,163,39)" stroke-opacity="0" stroke-width="1px" style="cursor: move; --darkreader-inline-fill: #563f04; --darkreader-inline-stroke: #f2aa38;" width="195" x="-2" y="-3"/>
<line data-darkreader-inline-stroke="" stroke="#495879" stroke-opacity="1" stroke-width="1px" style="cursor: move; --darkreader-inline-stroke: #4a597b;" x1="0" x2="191" y1="15" y2="15"/>
<text data-darkreader-inline-fill="" fill="rgb(82,92,97)" font-family="verdana" font-size="8.0625" font-style="normal" font-weight="normal" style="cursor: move; --darkreader-inline-fill: #afa99e;" visibility="visible" x="3" y="3">
<tspan dy="1em" x="3">Relative Schutzbedürfnisse § 9 MarkenG</tspan>
</text>
<g focusable="true" height="9" preserveAspectRatio="none" transform="translate(0,3) scale(0,0.09)" width="0"/>
<ellipse cx="3" cy="3" data-darkreader-inline-fill="" data-darkreader-inline-stroke="" fill="rgb(224,229,239)" height="6" rx="3" ry="3" stroke="rgb(2,59,185)" stroke-width="1px" style="cursor: default; --darkreader-inline-fill: #c8d5e2; --darkreader-inline-stroke: #5eaafd;" visibility="hidden" width="6"/>
</g>
<g focusable="true" height="100" preserveAspectRatio="none" transform="translate(91,28) scale(1,1)" visibility="visible" width="100">
<rect data-darkreader-inline-fill="" data-darkreader-inline-stroke="" fill="rgb(252,235,192)" fill-opacity="0" height="25" rx="3.75" ry="3.75" stroke="rgb(241,163,39)" stroke-opacity="0" stroke-width="1px" style="cursor: move; --darkreader-inline-fill: #563f04; --darkreader-inline-stroke: #f2aa38;" width="162" x="-2" y="-3"/>
<line data-darkreader-inline-stroke="" stroke="#495879" stroke-opacity="1" stroke-width="1px" style="cursor: move; --darkreader-inline-stroke: #4a597b;" visibility="visible" x1="0" x2="158" y1="19" y2="19"/>
<text data-darkreader-inline-fill="" fill="rgb(82,92,97)" font-family="verdana" font-size="10.75" font-style="normal" font-weight="normal" style="cursor: move; --darkreader-inline-fill: #afa99e;" visibility="visible" x="3" y="3">
<tspan dy="1em" x="3">Maßnahmen bei Verletzung</tspan>
</text>
<g focusable="true" height="13" preserveAspectRatio="none" transform="translate(0,3) scale(0,0.13)" width="0"/>
<ellipse cx="161" cy="19" data-darkreader-inline-fill="" data-darkreader-inline-stroke="" fill="rgb(224,229,239)" height="6" rx="3" ry="3" stroke="rgb(2,59,185)" stroke-width="1px" style="cursor: default; --darkreader-inline-fill: #c8d5e2; --darkreader-inline-stroke: #5eaafd;" visibility="visible" width="6"/>
</g>
<g focusable="true" height="100" preserveAspectRatio="none" transform="translate(278,17) scale(1,1)" visibility="visible" width="100">
<rect data-darkreader-inline-fill="" data-darkreader-inline-stroke="" fill="rgb(252,235,192)" fill-opacity="0" height="21" rx="3.15" ry="3.15" stroke="rgb(241,163,39)" stroke-opacity="0" stroke-width="1px" style="cursor: move; --darkreader-inline-fill: #563f04; --darkreader-inline-stroke: #f2aa38;" width="201" x="-2" y="-3"/>
<line data-darkreader-inline-stroke="" stroke="#495879" stroke-opacity="1" stroke-width="1px" style="cursor: move; --darkreader-inline-stroke: #4a597b;" x1="0" x2="197" y1="15" y2="15"/>
<text data-darkreader-inline-fill="" fill="rgb(82,92,97)" font-family="verdana" font-size="8.0625" font-style="normal" font-weight="normal" style="cursor: move; --darkreader-inline-fill: #afa99e;" visibility="visible" x="3" y="3">
<tspan dy="1em" x="3">Unterlassungsanspruch § 14 (2) MarkenG</tspan>
</text>
<g focusable="true" height="9" preserveAspectRatio="none" transform="translate(0,3) scale(0,0.09)" width="0"/>
<ellipse cx="3" cy="3" data-darkreader-inline-fill="" data-darkreader-inline-stroke="" fill="rgb(224,229,239)" height="6" rx="3" ry="3" stroke="rgb(2,59,185)" stroke-width="1px" style="cursor: default; --darkreader-inline-fill: #c8d5e2; --darkreader-inline-stroke: #5eaafd;" visibility="hidden" width="6"/>
</g>
<g focusable="true" height="100" preserveAspectRatio="none" transform="translate(278,42) scale(1,1)" visibility="visible" width="100">
<rect data-darkreader-inline-fill="" data-darkreader-inline-stroke="" fill="rgb(252,235,192)" fill-opacity="0" height="21" rx="3.15" ry="3.15" stroke="rgb(241,163,39)" stroke-opacity="0" stroke-width="1px" style="cursor: move; --darkreader-inline-fill: #563f04; --darkreader-inline-stroke: #f2aa38;" width="167" x="-2" y="-3"/>
<line data-darkreader-inline-stroke="" stroke="#495879" stroke-opacity="1" stroke-width="1px" style="cursor: move; --darkreader-inline-stroke: #4a597b;" x1="0" x2="163" y1="15" y2="15"/>
<text data-darkreader-inline-fill="" fill="rgb(82,92,97)" font-family="verdana" font-size="8.0625" font-style="normal" font-weight="normal" style="cursor: move; --darkreader-inline-fill: #afa99e;" visibility="visible" x="3" y="3">
<tspan dy="1em" x="3">Schadensersatz § 14 (6) MarkenG</tspan>
</text>
<g focusable="true" height="9" preserveAspectRatio="none" transform="translate(0,3) scale(0,0.09)" width="0"/>
<ellipse cx="3" cy="3" data-darkreader-inline-fill="" data-darkreader-inline-stroke="" fill="rgb(224,229,239)" height="6" rx="3" ry="3" stroke="rgb(2,59,185)" stroke-width="1px" style="cursor: default; --darkreader-inline-fill: #c8d5e2; --darkreader-inline-stroke: #5eaafd;" visibility="hidden" width="6"/>
</g>
<rect data-darkreader-inline-fill="" data-darkreader-inline-stroke="" fill="#CC0033" fill-opacity="0.4" height="6" rx="0" ry="0" stroke="#FF9933" stroke-opacity="0.4" stroke-width="1px" style="--darkreader-inline-fill: #a30029; --darkreader-inline-stroke: #ff9e3d;" visibility="hidden" width="50" x="159" y="26"/>
</svg>
