<?xml version="1.0" encoding="UTF-8" standalone="no"?>
<svg xmlns="http://www.w3.org/2000/svg" xmlns:xlink="http://www.w3.org/1999/xlink" focusable="true" height="295.0" id="workspace" preserveAspectRatio="xMinYMin" viewBox="-730.0 -144.0 1309.0 295.0" width="1309.0">
<path d="M166,75 C175,75 186,95 195,95" fill="#495879" fill-opacity="1" stroke="#495879" stroke-opacity="1" stroke-width="1px" style="fill:none " visibility="visible"/>
<rect data-darkreader-inline-fill="" data-darkreader-inline-stroke="" fill="#CC0033" fill-opacity="0.4" height="42" rx="0" ry="0" stroke="#FF9933" stroke-opacity="0.4" stroke-width="1px" style="--darkreader-inline-fill: #a30029; --darkreader-inline-stroke: #ff9e3d;" visibility="hidden" width="118" x="-59" y="-21"/>
<path d="M284,38 C244.66666666666666,53.66666666666667 205.33333333333334,69.33333333333333 166,85" data-darkreader-inline-fill="" data-darkreader-inline-stroke="" fill-opacity="0.4" stroke="#CC0033" stroke-opacity="0.4" stroke-width="1px" style="fill: none; --darkreader-inline-stroke: #ff3d6e; --darkreader-inline-fill: none;" visibility="hidden"/>
<path d="M-173,-54 C-115.33333333333334,-36 -57.666666666666664,-18 0,0" data-darkreader-inline-fill="" data-darkreader-inline-stroke="" fill-opacity="0.4" stroke="#CC0033" stroke-opacity="0.4" stroke-width="1px" style="fill: none; --darkreader-inline-stroke: #ff3d6e; --darkreader-inline-fill: none;" visibility="hidden"/>
<path d="M166,75 C175,75 186,70 195,70" fill="#495879" fill-opacity="1" stroke="#495879" stroke-opacity="1" stroke-width="1px" style="fill:none " visibility="visible"/>
<path d="M0,0 C29,0 60,75 89,75 60,78 29,5 0,7 Z" fill="#495879" fill-opacity="1" stroke="#495879" stroke-opacity="1" stroke-width="1px" style="fill:#495879 " visibility="visible"/>
<path d="M154,0 C163,0 173,45 182,45" fill="#495879" fill-opacity="1" stroke="#495879" stroke-opacity="1" stroke-width="1px" style="fill:none " visibility="visible"/>
<path d="M154,0 C163,0 173,-4 182,-4" fill="#495879" fill-opacity="1" stroke="#495879" stroke-opacity="1" stroke-width="1px" style="fill:none " visibility="visible"/>
<path d="M0,0 C29,0 60,0 89,0 60,3 29,5 0,7 Z" fill="#495879" fill-opacity="1" stroke="#495879" stroke-opacity="1" stroke-width="1px" style="fill:#495879 " visibility="visible"/>
<path d="M262,-75 C271,-75 281,-54 290,-54" fill="#495879" fill-opacity="1" stroke="#495879" stroke-opacity="1" stroke-width="1px" style="fill:none " visibility="visible"/>
<path d="M262,-75 C271,-75 281,-79 290,-79" fill="#495879" fill-opacity="1" stroke="#495879" stroke-opacity="1" stroke-width="1px" style="fill:none " visibility="visible"/>
<path d="M0,0 C29,0 60,-75 89,-75 60,-72 29,5 0,7 Z" fill="#495879" fill-opacity="1" stroke="#495879" stroke-opacity="1" stroke-width="1px" style="fill:#495879 " visibility="visible"/>
<path d="M355,-4 C364,-4 374,20 383,20" fill="#495879" fill-opacity="1" stroke="#495879" stroke-opacity="1" stroke-width="1px" style="fill:none " visibility="visible"/>
<path d="M355,-4 C364,-4 374,-4 383,-4" fill="#495879" fill-opacity="1" stroke="#495879" stroke-opacity="1" stroke-width="1px" style="fill:none " visibility="visible"/>
<path d="M355,-4 C364,-4 374,-29 383,-29" fill="#495879" fill-opacity="1" stroke="#495879" stroke-opacity="1" stroke-width="1px" style="fill:none " visibility="visible"/>
<path d="M-198,38 C-207,38 -217,58 -226,58" fill="#495879" fill-opacity="1" stroke="#495879" stroke-opacity="1" stroke-width="1px" style="fill:none " visibility="visible"/>
<path d="M-198,38 C-207,38 -217,33 -226,33" fill="#495879" fill-opacity="1" stroke="#495879" stroke-opacity="1" stroke-width="1px" style="fill:none " visibility="visible"/>
<path d="M0,0 C-29,0 -60,38 -89,38 -60,41 -29,5 0,7 Z" fill="#495879" fill-opacity="1" stroke="#495879" stroke-opacity="1" stroke-width="1px" style="fill:#495879 " visibility="visible"/>
<path d="M-486,0 C-495,0 -506,8 -515,8" fill="#495879" fill-opacity="1" stroke="#495879" stroke-opacity="1" stroke-width="1px" style="fill:none " visibility="visible"/>
<path d="M-306,-15 C-316,-15 -326,0 -336,0" fill="#495879" fill-opacity="1" stroke="#495879" stroke-opacity="1" stroke-width="1px" style="fill:none " visibility="visible"/>
<path d="M-306,-15 C-315,-15 -325,-17 -334,-17" fill="#495879" fill-opacity="1" stroke="#495879" stroke-opacity="1" stroke-width="1px" style="fill:none " visibility="visible"/>
<path d="M-306,-15 C-315,-15 -326,-42 -335,-42" fill="#495879" fill-opacity="1" stroke="#495879" stroke-opacity="1" stroke-width="1px" style="fill:none " visibility="visible"/>
<path d="M0,0 C-29,0 -58,-15 -87,-15 -58,-12 -29,5 0,7 Z" fill="#495879" fill-opacity="1" stroke="#495879" stroke-opacity="1" stroke-width="1px" style="fill:#495879 " visibility="visible"/>
<g focusable="true" height="100" preserveAspectRatio="none" transform="translate(-57,-19) scale(1,1)" visibility="visible" width="100">
<rect data-darkreader-inline-fill="" data-darkreader-inline-stroke="" fill="rgb(252,235,192)" fill-opacity="0" height="44" rx="6.6" ry="6.6" stroke="rgb(241,163,39)" stroke-opacity="0" stroke-width="1px" style="cursor: default; --darkreader-inline-fill: #563f04; --darkreader-inline-stroke: #f2aa38;" width="118" x="-2" y="-3"/>
<rect data-darkreader-inline-fill="" data-darkreader-inline-stroke="" fill="rgb(80,157,192)" height="38" rx="5.7" ry="5.7" stroke="rgb(57,113,177)" stroke-width="2px" style="cursor: default; --darkreader-inline-fill: #33728f; --darkreader-inline-stroke: #6ea3d0;" width="114" x="0" y="0"/>
<text data-darkreader-inline-fill="" fill="#ffffff" font-family="verdana" font-size="13.4375" font-style="normal" font-weight="bold" style="cursor: default; --darkreader-inline-fill: #e8e6e3;" visibility="visible" x="11" y="11">
<tspan dy="1em" x="11">Patentrecht</tspan>
</text>
<g focusable="true" height="16" preserveAspectRatio="none" transform="translate(0,11) scale(0,0.16)" width="0"/>
</g>
<g focusable="true" height="100" preserveAspectRatio="none" transform="translate(290,-94) scale(1,1)" visibility="visible" width="100">
<rect data-darkreader-inline-fill="" data-darkreader-inline-stroke="" fill="rgb(252,235,192)" fill-opacity="0" height="21" rx="3.15" ry="3.15" stroke="rgb(241,163,39)" stroke-opacity="0" stroke-width="1px" style="cursor: move; --darkreader-inline-fill: #563f04; --darkreader-inline-stroke: #f2aa38;" width="172" x="-2" y="-3"/>
<line data-darkreader-inline-stroke="" stroke="#495879" stroke-opacity="1" stroke-width="1px" style="cursor: move; --darkreader-inline-stroke: #4a597b;" x1="0" x2="168" y1="15" y2="15"/>
<text data-darkreader-inline-fill="" fill="rgb(82,92,97)" font-family="verdana" font-size="8.0625" font-style="normal" font-weight="normal" style="cursor: move; --darkreader-inline-fill: #afa99e;" visibility="visible" x="3" y="3">
<tspan dy="1em" x="3">Ausschließlichkeitswirkung § 9 PatG</tspan>
</text>
<g focusable="true" height="9" preserveAspectRatio="none" transform="translate(0,3) scale(0,0.09)" width="0"/>
<ellipse cx="3" cy="3" data-darkreader-inline-fill="" data-darkreader-inline-stroke="" fill="rgb(224,229,239)" height="6" rx="3" ry="3" stroke="rgb(2,59,185)" stroke-width="1px" style="cursor: default; --darkreader-inline-fill: #c8d5e2; --darkreader-inline-stroke: #5eaafd;" visibility="hidden" width="6"/>
</g>
<g focusable="true" height="100" preserveAspectRatio="none" transform="translate(-305,-34) scale(1,1)" visibility="visible" width="100">
<rect data-darkreader-inline-fill="" data-darkreader-inline-stroke="" fill="rgb(252,235,192)" fill-opacity="0" height="25" rx="3.75" ry="3.75" stroke="rgb(241,163,39)" stroke-opacity="0" stroke-width="1px" style="cursor: move; --darkreader-inline-fill: #563f04; --darkreader-inline-stroke: #f2aa38;" width="222" x="-2" y="-3"/>
<line data-darkreader-inline-stroke="" stroke="#495879" stroke-opacity="1" stroke-width="1px" style="cursor: move; --darkreader-inline-stroke: #4a597b;" x1="0" x2="218" y1="19" y2="19"/>
<text data-darkreader-inline-fill="" fill="rgb(82,92,97)" font-family="verdana" font-size="10.75" font-style="normal" font-weight="normal" style="cursor: move; --darkreader-inline-fill: #afa99e;" visibility="visible" x="3" y="3">
<tspan dy="1em" x="3">Voraussetzungen Patentierung § 1 PatG</tspan>
</text>
<ellipse cx="-3" cy="19" data-darkreader-inline-fill="" data-darkreader-inline-stroke="" fill="rgb(224,229,239)" height="6" rx="3" ry="3" stroke="rgb(2,59,185)" stroke-width="1px" style="cursor: default; --darkreader-inline-fill: #c8d5e2; --darkreader-inline-stroke: #5eaafd;" visibility="visible" width="6"/>
<g focusable="true" height="13" preserveAspectRatio="none" transform="translate(0,3) scale(0,0.13)" width="0"/>
</g>
<g focusable="true" height="100" preserveAspectRatio="none" transform="translate(-421,-57) scale(1,1)" visibility="visible" width="100">
<rect data-darkreader-inline-fill="" data-darkreader-inline-stroke="" fill="rgb(252,235,192)" fill-opacity="0" height="21" rx="3.15" ry="3.15" stroke="rgb(241,163,39)" stroke-opacity="0" stroke-width="1px" style="cursor: move; --darkreader-inline-fill: #563f04; --darkreader-inline-stroke: #f2aa38;" width="90" x="-2" y="-3"/>
<line data-darkreader-inline-stroke="" stroke="#495879" stroke-opacity="1" stroke-width="1px" style="cursor: move; --darkreader-inline-stroke: #4a597b;" x1="0" x2="86" y1="15" y2="15"/>
<text data-darkreader-inline-fill="" fill="rgb(82,92,97)" font-family="verdana" font-size="8.0625" font-style="normal" font-weight="normal" style="cursor: move; --darkreader-inline-fill: #afa99e;" visibility="visible" x="3" y="3">
<tspan dy="1em" x="3">Neuheit § 3 PatG</tspan>
</text>
<g focusable="true" height="9" preserveAspectRatio="none" transform="translate(0,3) scale(0,0.09)" width="0"/>
<ellipse cx="3" cy="3" data-darkreader-inline-fill="" data-darkreader-inline-stroke="" fill="rgb(224,229,239)" height="6" rx="3" ry="3" stroke="rgb(2,59,185)" stroke-width="1px" style="cursor: default; --darkreader-inline-fill: #c8d5e2; --darkreader-inline-stroke: #5eaafd;" visibility="hidden" width="6"/>
</g>
<g focusable="true" height="100" preserveAspectRatio="none" transform="translate(-467,-32) scale(1,1)" visibility="visible" width="100">
<rect data-darkreader-inline-fill="" data-darkreader-inline-stroke="" fill="rgb(252,235,192)" fill-opacity="0" height="21" rx="3.15" ry="3.15" stroke="rgb(241,163,39)" stroke-opacity="0" stroke-width="1px" style="cursor: move; --darkreader-inline-fill: #563f04; --darkreader-inline-stroke: #f2aa38;" width="137" x="-2" y="-3"/>
<line data-darkreader-inline-stroke="" stroke="#495879" stroke-opacity="1" stroke-width="1px" style="cursor: move; --darkreader-inline-stroke: #4a597b;" x1="0" x2="133" y1="15" y2="15"/>
<text data-darkreader-inline-fill="" fill="rgb(82,92,97)" font-family="verdana" font-size="8.0625" font-style="normal" font-weight="normal" style="cursor: move; --darkreader-inline-fill: #afa99e;" visibility="visible" x="3" y="3">
<tspan dy="1em" x="3">Stand der Technik § 3 PatG</tspan>
</text>
<g focusable="true" height="9" preserveAspectRatio="none" transform="translate(0,3) scale(0,0.09)" width="0"/>
<ellipse cx="3" cy="3" data-darkreader-inline-fill="" data-darkreader-inline-stroke="" fill="rgb(224,229,239)" height="6" rx="3" ry="3" stroke="rgb(2,59,185)" stroke-width="1px" style="cursor: default; --darkreader-inline-fill: #c8d5e2; --darkreader-inline-stroke: #5eaafd;" visibility="hidden" width="6"/>
</g>
<g focusable="true" height="100" preserveAspectRatio="none" transform="translate(-485,-7) scale(1,1)" visibility="visible" width="100">
<rect data-darkreader-inline-fill="" data-darkreader-inline-stroke="" fill="rgb(252,235,192)" fill-opacity="0" height="21" rx="3.15" ry="3.15" stroke="rgb(241,163,39)" stroke-opacity="0" stroke-width="1px" style="cursor: move; --darkreader-inline-fill: #563f04; --darkreader-inline-stroke: #f2aa38;" width="155" x="-2" y="-3"/>
<rect data-darkreader-inline-fill="" data-darkreader-inline-stroke="" fill="rgb(224,229,239)" height="15" rx="2.25" ry="2.25" stroke="rgb(2,59,185)" stroke-width="2px" style="cursor: move; --darkreader-inline-fill: #25282a; --darkreader-inline-stroke: #5eaafd;" width="151" x="0" y="0"/>
<text data-darkreader-inline-fill="" fill="rgb(82,92,97)" font-family="verdana" font-size="8.0625" font-style="normal" font-weight="normal" style="cursor: move; --darkreader-inline-fill: #afa99e;" visibility="visible" x="3" y="3">
<tspan dy="1em" x="3">Erfinderische Tätigkeit § 4 PatG</tspan>
</text>
<g focusable="true" height="9" preserveAspectRatio="none" transform="translate(0,3) scale(0,0.09)" width="0"/>
<ellipse cx="-3" cy="7.5" data-darkreader-inline-fill="" data-darkreader-inline-stroke="" fill="rgb(224,229,239)" height="6" rx="3" ry="3" stroke="rgb(2,59,185)" stroke-width="1px" style="cursor: default; --darkreader-inline-fill: #c8d5e2; --darkreader-inline-stroke: #5eaafd;" visibility="visible" width="6"/>
</g>
<g focusable="true" height="100" preserveAspectRatio="none" transform="translate(-680,-7) scale(1,1)" visibility="visible" width="100">
<rect data-darkreader-inline-fill="" data-darkreader-inline-stroke="" fill="rgb(252,235,192)" fill-opacity="0" height="21" rx="3.15" ry="3.15" stroke="rgb(241,163,39)" stroke-opacity="0" stroke-width="1px" style="cursor: move; --darkreader-inline-fill: #563f04; --darkreader-inline-stroke: #f2aa38;" width="169" x="-2" y="-3"/>
<line data-darkreader-inline-stroke="" stroke="#495879" stroke-opacity="1" stroke-width="1px" style="cursor: move; --darkreader-inline-stroke: #4a597b;" x1="0" x2="165" y1="15" y2="15"/>
<text data-darkreader-inline-fill="" fill="rgb(82,92,97)" font-family="verdana" font-size="8.0625" font-style="normal" font-weight="normal" style="cursor: move; --darkreader-inline-fill: #afa99e;" visibility="visible" x="3" y="3">
<tspan dy="1em" x="3">Keine Erfindungen § 1 Abs. 3 PatG</tspan>
</text>
<g focusable="true" height="9" preserveAspectRatio="none" transform="translate(0,3) scale(0,0.09)" width="0"/>
<ellipse cx="3" cy="3" data-darkreader-inline-fill="" data-darkreader-inline-stroke="" fill="rgb(224,229,239)" height="6" rx="3" ry="3" stroke="rgb(2,59,185)" stroke-width="1px" style="cursor: default; --darkreader-inline-fill: #c8d5e2; --darkreader-inline-stroke: #5eaafd;" visibility="hidden" width="6"/>
</g>
<g focusable="true" height="100" preserveAspectRatio="none" transform="translate(-197,28) scale(1,1)" visibility="visible" width="100">
<rect data-darkreader-inline-fill="" data-darkreader-inline-stroke="" fill="rgb(252,235,192)" fill-opacity="0" height="25" rx="3.75" ry="3.75" stroke="rgb(241,163,39)" stroke-opacity="0" stroke-width="1px" style="cursor: move; --darkreader-inline-fill: #563f04; --darkreader-inline-stroke: #f2aa38;" width="114" x="-2" y="-3"/>
<rect data-darkreader-inline-fill="" data-darkreader-inline-stroke="" fill="rgb(224,229,239)" height="19" rx="2.85" ry="2.85" stroke="rgb(2,59,185)" stroke-width="2px" style="cursor: move; --darkreader-inline-fill: #25282a; --darkreader-inline-stroke: #5eaafd;" width="110" x="0" y="0"/>
<text data-darkreader-inline-fill="" fill="rgb(82,92,97)" font-family="verdana" font-size="10.75" font-style="normal" font-weight="normal" style="cursor: move; --darkreader-inline-fill: #afa99e;" visibility="visible" x="3" y="3">
<tspan dy="1em" x="3">Arten der Erfindung</tspan>
</text>
<g focusable="true" height="13" preserveAspectRatio="none" transform="translate(0,3) scale(0,0.13)" width="0"/>
<ellipse cx="-3" cy="9.5" data-darkreader-inline-fill="" data-darkreader-inline-stroke="" fill="rgb(224,229,239)" height="6" rx="3" ry="3" stroke="rgb(2,59,185)" stroke-width="1px" style="cursor: default; --darkreader-inline-fill: #c8d5e2; --darkreader-inline-stroke: #5eaafd;" visibility="visible" width="6"/>
</g>
<g focusable="true" height="100" preserveAspectRatio="none" transform="translate(-309,18) scale(1,1)" visibility="visible" width="100">
<rect data-darkreader-inline-fill="" data-darkreader-inline-stroke="" fill="rgb(252,235,192)" fill-opacity="0" height="21" rx="3.15" ry="3.15" stroke="rgb(241,163,39)" stroke-opacity="0" stroke-width="1px" style="cursor: move; --darkreader-inline-fill: #563f04; --darkreader-inline-stroke: #f2aa38;" width="87" x="-2" y="-3"/>
<line data-darkreader-inline-stroke="" stroke="#495879" stroke-opacity="1" stroke-width="1px" style="cursor: move; --darkreader-inline-stroke: #4a597b;" x1="0" x2="83" y1="15" y2="15"/>
<text data-darkreader-inline-fill="" fill="rgb(82,92,97)" font-family="verdana" font-size="8.0625" font-style="normal" font-weight="normal" style="cursor: move; --darkreader-inline-fill: #afa99e;" visibility="visible" x="3" y="3">
<tspan dy="1em" x="3">Erzeugnispatent</tspan>
</text>
<g focusable="true" height="9" preserveAspectRatio="none" transform="translate(0,3) scale(0,0.09)" width="0"/>
<ellipse cx="3" cy="3" data-darkreader-inline-fill="" data-darkreader-inline-stroke="" fill="rgb(224,229,239)" height="6" rx="3" ry="3" stroke="rgb(2,59,185)" stroke-width="1px" style="cursor: default; --darkreader-inline-fill: #c8d5e2; --darkreader-inline-stroke: #5eaafd;" visibility="hidden" width="6"/>
</g>
<g focusable="true" height="100" preserveAspectRatio="none" transform="translate(-315,43) scale(1,1)" visibility="visible" width="100">
<rect data-darkreader-inline-fill="" data-darkreader-inline-stroke="" fill="rgb(252,235,192)" fill-opacity="0" height="21" rx="3.15" ry="3.15" stroke="rgb(241,163,39)" stroke-opacity="0" stroke-width="1px" style="cursor: move; --darkreader-inline-fill: #563f04; --darkreader-inline-stroke: #f2aa38;" width="93" x="-2" y="-3"/>
<line data-darkreader-inline-stroke="" stroke="#495879" stroke-opacity="1" stroke-width="1px" style="cursor: move; --darkreader-inline-stroke: #4a597b;" x1="0" x2="89" y1="15" y2="15"/>
<text data-darkreader-inline-fill="" fill="rgb(82,92,97)" font-family="verdana" font-size="8.0625" font-style="normal" font-weight="normal" style="cursor: move; --darkreader-inline-fill: #afa99e;" visibility="visible" x="3" y="3">
<tspan dy="1em" x="3">Verfahrenspatent</tspan>
</text>
<g focusable="true" height="9" preserveAspectRatio="none" transform="translate(0,3) scale(0,0.09)" width="0"/>
<ellipse cx="3" cy="3" data-darkreader-inline-fill="" data-darkreader-inline-stroke="" fill="rgb(224,229,239)" height="6" rx="3" ry="3" stroke="rgb(2,59,185)" stroke-width="1px" style="cursor: default; --darkreader-inline-fill: #c8d5e2; --darkreader-inline-stroke: #5eaafd;" visibility="hidden" width="6"/>
</g>
<g focusable="true" height="100" preserveAspectRatio="none" transform="translate(182,-19) scale(1,1)" visibility="visible" width="100">
<rect data-darkreader-inline-fill="" data-darkreader-inline-stroke="" fill="rgb(252,235,192)" fill-opacity="0" height="21" rx="3.15" ry="3.15" stroke="rgb(241,163,39)" stroke-opacity="0" stroke-width="1px" style="cursor: move; --darkreader-inline-fill: #563f04; --darkreader-inline-stroke: #f2aa38;" width="175" x="-2" y="-3"/>
<line data-darkreader-inline-stroke="" stroke="#495879" stroke-opacity="1" stroke-width="1px" style="cursor: move; --darkreader-inline-stroke: #4a597b;" x1="0" x2="171" y1="15" y2="15"/>
<text data-darkreader-inline-fill="" fill="rgb(82,92,97)" font-family="verdana" font-size="8.0625" font-style="normal" font-weight="normal" style="cursor: move; --darkreader-inline-fill: #afa99e;" visibility="visible" x="3" y="3">
<tspan dy="1em" x="3">Anmeldeverfahren § 34 PatG Abs. 3</tspan>
</text>
<g focusable="true" height="9" preserveAspectRatio="none" transform="translate(0,3) scale(0,0.09)" width="0"/>
<ellipse cx="174" cy="15" data-darkreader-inline-fill="" data-darkreader-inline-stroke="" fill="rgb(224,229,239)" height="6" rx="3" ry="3" stroke="rgb(2,59,185)" stroke-width="1px" style="cursor: default; --darkreader-inline-fill: #c8d5e2; --darkreader-inline-stroke: #5eaafd;" visibility="visible" width="6"/>
</g>
<g focusable="true" height="100" preserveAspectRatio="none" transform="translate(383,-44) scale(1,1)" visibility="visible" width="100">
<rect data-darkreader-inline-fill="" data-darkreader-inline-stroke="" fill="rgb(252,235,192)" fill-opacity="0" height="21" rx="3.15" ry="3.15" stroke="rgb(241,163,39)" stroke-opacity="0" stroke-width="1px" style="cursor: move; --darkreader-inline-fill: #563f04; --darkreader-inline-stroke: #f2aa38;" width="111" x="-2" y="-3"/>
<line data-darkreader-inline-stroke="" stroke="#495879" stroke-opacity="1" stroke-width="1px" style="cursor: move; --darkreader-inline-stroke: #4a597b;" x1="0" x2="107" y1="15" y2="15"/>
<text data-darkreader-inline-fill="" fill="rgb(82,92,97)" font-family="verdana" font-size="8.0625" font-style="normal" font-weight="normal" style="cursor: move; --darkreader-inline-fill: #afa99e;" visibility="visible" x="3" y="3">
<tspan dy="1em" x="3">Name des Anmelders</tspan>
</text>
<g focusable="true" height="9" preserveAspectRatio="none" transform="translate(0,3) scale(0,0.09)" width="0"/>
<ellipse cx="3" cy="3" data-darkreader-inline-fill="" data-darkreader-inline-stroke="" fill="rgb(224,229,239)" height="6" rx="3" ry="3" stroke="rgb(2,59,185)" stroke-width="1px" style="cursor: default; --darkreader-inline-fill: #c8d5e2; --darkreader-inline-stroke: #5eaafd;" visibility="hidden" width="6"/>
</g>
<g focusable="true" height="100" preserveAspectRatio="none" transform="translate(383,-19) scale(1,1)" visibility="visible" width="100">
<rect data-darkreader-inline-fill="" data-darkreader-inline-stroke="" fill="rgb(252,235,192)" fill-opacity="0" height="21" rx="3.15" ry="3.15" stroke="rgb(241,163,39)" stroke-opacity="0" stroke-width="1px" style="cursor: move; --darkreader-inline-fill: #563f04; --darkreader-inline-stroke: #f2aa38;" width="26" x="-2" y="-3"/>
<line data-darkreader-inline-stroke="" stroke="#495879" stroke-opacity="1" stroke-width="1px" style="cursor: move; --darkreader-inline-stroke: #4a597b;" x1="0" x2="22" y1="15" y2="15"/>
<text data-darkreader-inline-fill="" fill="rgb(82,92,97)" font-family="verdana" font-size="8.0625" font-style="normal" font-weight="normal" style="cursor: move; --darkreader-inline-fill: #afa99e;" visibility="visible" x="3" y="3">
<tspan dy="1em" x="3">...</tspan>
</text>
<g focusable="true" height="9" preserveAspectRatio="none" transform="translate(0,3) scale(0,0.09)" width="0"/>
<ellipse cx="3" cy="3" data-darkreader-inline-fill="" data-darkreader-inline-stroke="" fill="rgb(224,229,239)" height="6" rx="3" ry="3" stroke="rgb(2,59,185)" stroke-width="1px" style="cursor: default; --darkreader-inline-fill: #c8d5e2; --darkreader-inline-stroke: #5eaafd;" visibility="hidden" width="6"/>
</g>
<g focusable="true" height="100" preserveAspectRatio="none" transform="translate(383,5) scale(1,1)" visibility="visible" width="100">
<rect data-darkreader-inline-fill="" data-darkreader-inline-stroke="" fill="rgb(252,235,192)" fill-opacity="0" height="21" rx="3.15" ry="3.15" stroke="rgb(241,163,39)" stroke-opacity="0" stroke-width="1px" style="cursor: move; --darkreader-inline-fill: #563f04; --darkreader-inline-stroke: #f2aa38;" width="146" x="-2" y="-3"/>
<line data-darkreader-inline-stroke="" stroke="#495879" stroke-opacity="1" stroke-width="1px" style="cursor: move; --darkreader-inline-stroke: #4a597b;" x1="0" x2="142" y1="15" y2="15"/>
<text data-darkreader-inline-fill="" fill="rgb(82,92,97)" font-family="verdana" font-size="8.0625" font-style="normal" font-weight="normal" style="cursor: move; --darkreader-inline-fill: #afa99e;" visibility="visible" x="3" y="3">
<tspan dy="1em" x="3">Erfinderbennenung § 37 PatG</tspan>
</text>
<g focusable="true" height="9" preserveAspectRatio="none" transform="translate(0,3) scale(0,0.09)" width="0"/>
<ellipse cx="3" cy="3" data-darkreader-inline-fill="" data-darkreader-inline-stroke="" fill="rgb(224,229,239)" height="6" rx="3" ry="3" stroke="rgb(2,59,185)" stroke-width="1px" style="cursor: default; --darkreader-inline-fill: #c8d5e2; --darkreader-inline-stroke: #5eaafd;" visibility="hidden" width="6"/>
</g>
<g focusable="true" height="100" preserveAspectRatio="none" transform="translate(87,-84) scale(1,1)" visibility="visible" width="100">
<rect data-darkreader-inline-fill="" data-darkreader-inline-stroke="" fill="rgb(252,235,192)" fill-opacity="0" height="25" rx="3.75" ry="3.75" stroke="rgb(241,163,39)" stroke-opacity="0" stroke-width="1px" style="cursor: move; --darkreader-inline-fill: #563f04; --darkreader-inline-stroke: #f2aa38;" width="177" x="-2" y="-3"/>
<rect data-darkreader-inline-fill="" data-darkreader-inline-stroke="" fill="rgb(224,229,239)" height="19" rx="2.85" ry="2.85" stroke="rgb(2,59,185)" stroke-width="2px" style="cursor: move; --darkreader-inline-fill: #25282a; --darkreader-inline-stroke: #5eaafd;" width="173" x="0" y="0"/>
<text data-darkreader-inline-fill="" fill="rgb(82,92,97)" font-family="verdana" font-size="10.75" font-style="normal" font-weight="normal" style="cursor: move; --darkreader-inline-fill: #afa99e;" visibility="visible" x="3" y="3">
<tspan dy="1em" x="3">Wirkung des Patents § 14 PatG</tspan>
</text>
<g focusable="true" height="13" preserveAspectRatio="none" transform="translate(0,3) scale(0,0.13)" width="0"/>
<ellipse cx="176" cy="9.5" data-darkreader-inline-fill="" data-darkreader-inline-stroke="" fill="rgb(224,229,239)" height="6" rx="3" ry="3" stroke="rgb(2,59,185)" stroke-width="1px" style="cursor: default; --darkreader-inline-fill: #c8d5e2; --darkreader-inline-stroke: #5eaafd;" visibility="visible" width="6"/>
</g>
<g focusable="true" height="100" preserveAspectRatio="none" transform="translate(290,-69) scale(1,1)" visibility="visible" width="100">
<rect data-darkreader-inline-fill="" data-darkreader-inline-stroke="" fill="rgb(252,235,192)" fill-opacity="0" height="21" rx="3.15" ry="3.15" stroke="rgb(241,163,39)" stroke-opacity="0" stroke-width="1px" style="cursor: move; --darkreader-inline-fill: #563f04; --darkreader-inline-stroke: #f2aa38;" width="199" x="-2" y="-3"/>
<line data-darkreader-inline-stroke="" stroke="#495879" stroke-opacity="1" stroke-width="1px" style="cursor: move; --darkreader-inline-stroke: #4a597b;" x1="0" x2="195" y1="15" y2="15"/>
<text data-darkreader-inline-fill="" fill="rgb(82,92,97)" font-family="verdana" font-size="8.0625" font-style="normal" font-weight="normal" style="cursor: move; --darkreader-inline-fill: #afa99e;" visibility="visible" x="3" y="3">
<tspan dy="1em" x="3">Verbotene Benutzungshandlung § 9 PatG</tspan>
</text>
<g focusable="true" height="9" preserveAspectRatio="none" transform="translate(0,3) scale(0,0.09)" width="0"/>
<ellipse cx="3" cy="3" data-darkreader-inline-fill="" data-darkreader-inline-stroke="" fill="rgb(224,229,239)" height="6" rx="3" ry="3" stroke="rgb(2,59,185)" stroke-width="1px" style="cursor: default; --darkreader-inline-fill: #c8d5e2; --darkreader-inline-stroke: #5eaafd;" visibility="hidden" width="6"/>
</g>
<g focusable="true" height="100" preserveAspectRatio="none" transform="translate(87,-9) scale(1,1)" visibility="visible" width="100">
<rect data-darkreader-inline-fill="" data-darkreader-inline-stroke="" fill="rgb(252,235,192)" fill-opacity="0" height="25" rx="3.75" ry="3.75" stroke="rgb(241,163,39)" stroke-opacity="0" stroke-width="1px" style="cursor: move; --darkreader-inline-fill: #563f04; --darkreader-inline-stroke: #f2aa38;" width="69" x="-2" y="-3"/>
<rect data-darkreader-inline-fill="" data-darkreader-inline-stroke="" fill="rgb(224,229,239)" height="19" rx="2.85" ry="2.85" stroke="rgb(2,59,185)" stroke-width="2px" style="cursor: move; --darkreader-inline-fill: #25282a; --darkreader-inline-stroke: #5eaafd;" width="65" x="0" y="0"/>
<text data-darkreader-inline-fill="" fill="rgb(82,92,97)" font-family="verdana" font-size="10.75" font-style="normal" font-weight="normal" style="cursor: move; --darkreader-inline-fill: #afa99e;" visibility="visible" x="3" y="3">
<tspan dy="1em" x="3">Anmeldung</tspan>
</text>
<g focusable="true" height="13" preserveAspectRatio="none" transform="translate(0,3) scale(0,0.13)" width="0"/>
<ellipse cx="68" cy="9.5" data-darkreader-inline-fill="" data-darkreader-inline-stroke="" fill="rgb(224,229,239)" height="6" rx="3" ry="3" stroke="rgb(2,59,185)" stroke-width="1px" style="cursor: default; --darkreader-inline-fill: #c8d5e2; --darkreader-inline-stroke: #5eaafd;" visibility="visible" width="6"/>
</g>
<g focusable="true" height="100" preserveAspectRatio="none" transform="translate(182,30) scale(1,1)" visibility="visible" width="100">
<rect data-darkreader-inline-fill="" data-darkreader-inline-stroke="" fill="rgb(252,235,192)" fill-opacity="0" height="21" rx="3.15" ry="3.15" stroke="rgb(241,163,39)" stroke-opacity="0" stroke-width="1px" style="cursor: move; --darkreader-inline-fill: #563f04; --darkreader-inline-stroke: #f2aa38;" width="133" x="-2" y="-3"/>
<line data-darkreader-inline-stroke="" stroke="#495879" stroke-opacity="1" stroke-width="1px" style="cursor: move; --darkreader-inline-stroke: #4a597b;" x1="0" x2="129" y1="15" y2="15"/>
<text data-darkreader-inline-fill="" fill="rgb(82,92,97)" font-family="verdana" font-size="8.0625" font-style="normal" font-weight="normal" style="cursor: move; --darkreader-inline-fill: #afa99e;" visibility="visible" x="3" y="3">
<tspan dy="1em" x="3">Anmeldetag § 35 (1) PatG</tspan>
</text>
<g focusable="true" height="9" preserveAspectRatio="none" transform="translate(0,3) scale(0,0.09)" width="0"/>
<ellipse cx="3" cy="3" data-darkreader-inline-fill="" data-darkreader-inline-stroke="" fill="rgb(224,229,239)" height="6" rx="3" ry="3" stroke="rgb(2,59,185)" stroke-width="1px" style="cursor: default; --darkreader-inline-fill: #c8d5e2; --darkreader-inline-stroke: #5eaafd;" visibility="hidden" width="6"/>
</g>
<g focusable="true" height="100" preserveAspectRatio="none" transform="translate(87,65) scale(1,1)" visibility="visible" width="100">
<rect data-darkreader-inline-fill="" data-darkreader-inline-stroke="" fill="rgb(252,235,192)" fill-opacity="0" height="25" rx="3.75" ry="3.75" stroke="rgb(241,163,39)" stroke-opacity="0" stroke-width="1px" style="cursor: move; --darkreader-inline-fill: #563f04; --darkreader-inline-stroke: #f2aa38;" width="82" x="-2" y="-3"/>
<rect data-darkreader-inline-fill="" data-darkreader-inline-stroke="" fill="rgb(224,229,239)" height="19" rx="2.85" ry="2.85" stroke="rgb(2,59,185)" stroke-width="2px" style="cursor: move; --darkreader-inline-fill: #25282a; --darkreader-inline-stroke: #5eaafd;" width="78" x="0" y="0"/>
<text data-darkreader-inline-fill="" fill="rgb(82,92,97)" font-family="verdana" font-size="10.75" font-style="normal" font-weight="normal" style="cursor: move; --darkreader-inline-fill: #afa99e;" visibility="visible" x="3" y="3">
<tspan dy="1em" x="3">Patentanwalt</tspan>
</text>
<g focusable="true" height="13" preserveAspectRatio="none" transform="translate(0,3) scale(0,0.13)" width="0"/>
<ellipse cx="81" cy="9.5" data-darkreader-inline-fill="" data-darkreader-inline-stroke="" fill="rgb(224,229,239)" height="6" rx="3" ry="3" stroke="rgb(2,59,185)" stroke-width="1px" style="cursor: default; --darkreader-inline-fill: #c8d5e2; --darkreader-inline-stroke: #5eaafd;" visibility="visible" width="6"/>
</g>
<g focusable="true" height="100" preserveAspectRatio="none" transform="translate(195,55) scale(1,1)" visibility="visible" width="100">
<rect data-darkreader-inline-fill="" data-darkreader-inline-stroke="" fill="rgb(252,235,192)" fill-opacity="0" height="21" rx="3.15" ry="3.15" stroke="rgb(241,163,39)" stroke-opacity="0" stroke-width="1px" style="cursor: move; --darkreader-inline-fill: #563f04; --darkreader-inline-stroke: #f2aa38;" width="227" x="-2" y="-3"/>
<line data-darkreader-inline-stroke="" stroke="#495879" stroke-opacity="1" stroke-width="1px" style="cursor: move; --darkreader-inline-stroke: #4a597b;" x1="0" x2="223" y1="15" y2="15"/>
<text data-darkreader-inline-fill="" fill="rgb(82,92,97)" font-family="verdana" font-size="8.0625" font-style="normal" font-weight="normal" style="cursor: move; --darkreader-inline-fill: #afa99e;" visibility="visible" x="3" y="3">
<tspan dy="1em" x="3">Unabhängiges Organ der Rechtspflege § 1 PAO</tspan>
</text>
<g focusable="true" height="9" preserveAspectRatio="none" transform="translate(0,3) scale(0,0.09)" width="0"/>
<ellipse cx="3" cy="3" data-darkreader-inline-fill="" data-darkreader-inline-stroke="" fill="rgb(224,229,239)" height="6" rx="3" ry="3" stroke="rgb(2,59,185)" stroke-width="1px" style="cursor: default; --darkreader-inline-fill: #c8d5e2; --darkreader-inline-stroke: #5eaafd;" visibility="hidden" width="6"/>
</g>
<g focusable="true" height="100" preserveAspectRatio="none" transform="translate(195,80) scale(1,1)" visibility="visible" width="100">
<rect data-darkreader-inline-fill="" data-darkreader-inline-stroke="" fill="rgb(252,235,192)" fill-opacity="0" height="21" rx="3.15" ry="3.15" stroke="rgb(241,163,39)" stroke-opacity="0" stroke-width="1px" style="cursor: move; --darkreader-inline-fill: #563f04; --darkreader-inline-stroke: #f2aa38;" width="106" x="-2" y="-3"/>
<line data-darkreader-inline-stroke="" stroke="#495879" stroke-opacity="1" stroke-width="1px" style="cursor: move; --darkreader-inline-stroke: #4a597b;" x1="0" x2="102" y1="15" y2="15"/>
<text data-darkreader-inline-fill="" fill="rgb(82,92,97)" font-family="verdana" font-size="8.0625" font-style="normal" font-weight="normal" style="cursor: move; --darkreader-inline-fill: #afa99e;" visibility="visible" x="3" y="3">
<tspan dy="1em" x="3">Freier Beruf § 2 PAO</tspan>
</text>
<g focusable="true" height="9" preserveAspectRatio="none" transform="translate(0,3) scale(0,0.09)" width="0"/>
<ellipse cx="3" cy="3" data-darkreader-inline-fill="" data-darkreader-inline-stroke="" fill="rgb(224,229,239)" height="6" rx="3" ry="3" stroke="rgb(2,59,185)" stroke-width="1px" style="cursor: default; --darkreader-inline-fill: #c8d5e2; --darkreader-inline-stroke: #5eaafd;" visibility="hidden" width="6"/>
</g>
<rect data-darkreader-inline-fill="" data-darkreader-inline-stroke="" fill="#CC0033" fill-opacity="0.4" height="6" rx="0" ry="0" stroke="#FF9933" stroke-opacity="0.4" stroke-width="1px" style="--darkreader-inline-fill: #a30029; --darkreader-inline-stroke: #ff9e3d;" visibility="hidden" width="50" x="-221" y="-57"/>
</svg>
