<svg width="1301" height="1333" xmlns="http://www.w3.org/2000/svg" xmlns:xlink="http://www.w3.org/1999/xlink" overflow="hidden"><defs><clipPath id="clip0"><rect x="1229" y="434" width="1301" height="1333"/></clipPath></defs><g clip-path="url(#clip0)" transform="translate(-1229 -434)"><rect x="1488.5" y="436.5" width="519" height="520" stroke="#000000" stroke-width="4.58333" stroke-miterlimit="8" fill="#F2F2F2"/><text font-family="Calibri,Calibri_MSFontService,sans-serif" font-weight="400" font-size="83" transform="matrix(1 0 0 1 1706.39 724)">TP</text><rect x="2007.5" y="436.5" width="520" height="520" stroke="#000000" stroke-width="4.58333" stroke-miterlimit="8" fill="#262626"/><text font-family="Calibri,Calibri_MSFontService,sans-serif" font-weight="400" font-size="83" transform="matrix(1 0 0 1 2221.78 724)">FN</text><rect x="1488.5" y="956.5" width="519" height="520" stroke="#000000" stroke-width="4.58333" stroke-miterlimit="8" fill="#262626"/><text font-family="Calibri,Calibri_MSFontService,sans-serif" font-weight="400" font-size="83" transform="matrix(1 0 0 1 1707.53 1243)">FP</text><rect x="2007.5" y="956.5" width="520" height="520" stroke="#000000" stroke-width="4.58333" stroke-miterlimit="8" fill="#F2F2F2"/><text font-family="Calibri,Calibri_MSFontService,sans-serif" font-weight="400" font-size="83" transform="matrix(1 0 0 1 2220.63 1243)">TN</text><rect x="1488.5" y="1476.5" width="519" height="100" stroke="#000000" stroke-width="4.58333" stroke-miterlimit="8" fill="none"/><text font-family="Calibri,Calibri_MSFontService,sans-serif" font-weight="400" font-size="83" transform="matrix(1 0 0 1 1617.95 1553)">Positive</text><rect x="2007.5" y="1476.5" width="520" height="100" stroke="#000000" stroke-width="4.58333" stroke-miterlimit="8" fill="none"/><text font-family="Calibri,Calibri_MSFontService,sans-serif" font-weight="400" font-size="83" transform="matrix(1 0 0 1 2119.91 1553)">Negative</text><rect x="1387.5" y="956.5" width="101" height="520" stroke="#000000" stroke-width="4.58333" stroke-miterlimit="8" fill="none"/><text font-family="Calibri,Calibri_MSFontService,sans-serif" font-weight="400" font-size="83" transform="matrix(-1.83697e-16 -1 1 -1.83697e-16 1464.98 1363)">Negative</text><rect x="1387.5" y="436.5" width="101" height="520" stroke="#000000" stroke-width="4.58333" stroke-miterlimit="8" fill="none"/><text font-family="Calibri,Calibri_MSFontService,sans-serif" font-weight="400" font-size="83" transform="matrix(-1.83697e-16 -1 1 -1.83697e-16 1464.98 826)">Positive</text><text font-family="Calibri,Calibri_MSFontService,sans-serif" font-weight="400" font-size="83" transform="matrix(1 0 0 1 1830.1 1695)">Predicted</text><text font-family="Calibri,Calibri_MSFontService,sans-serif" font-weight="400" font-size="83" transform="matrix(-1.83697e-16 -1 1 -1.83697e-16 1331.04 1086)">Actual</text><path d="M1627.5 696.5C1627.5 629.121 1681.67 574.5 1748.5 574.5 1815.33 574.5 1869.5 629.121 1869.5 696.5 1869.5 763.879 1815.33 818.5 1748.5 818.5 1681.67 818.5 1627.5 763.879 1627.5 696.5Z" stroke="#00B0F0" stroke-width="6.875" stroke-miterlimit="8" fill="none" fill-rule="evenodd"/><path d="M1554.5 949.5C1554.5 706.495 1643.15 509.5 1752.5 509.5 1861.85 509.5 1950.5 706.495 1950.5 949.5 1950.5 1192.51 1861.85 1389.5 1752.5 1389.5 1643.15 1389.5 1554.5 1192.51 1554.5 949.5Z" stroke="#00B0F0" stroke-width="6.875" stroke-miterlimit="8" fill="none" fill-rule="evenodd"/></g></svg>