<?xml version="1.0" encoding="UTF-8" standalone="no"?>
<svg xmlns="http://www.w3.org/2000/svg" xmlns:xlink="http://www.w3.org/1999/xlink" focusable="true" height="274.0" id="workspace" preserveAspectRatio="xMinYMin" viewBox="-536.0 -134.0 1137.0 274.0" width="1137.0">
<path d="M0,0 C-31,0 -64,-62 -95,-62 -64,-59 -31,5 0,7 Z" fill="#495879" fill-opacity="1" stroke="#495879" stroke-opacity="1" stroke-width="1px" style="fill:#495879 " visibility="visible"/>
<rect data-darkreader-inline-fill="" data-darkreader-inline-stroke="" fill="#CC0033" fill-opacity="0.4" height="42" rx="0" ry="0" stroke="#FF9933" stroke-opacity="0.4" stroke-width="1px" style="--darkreader-inline-stroke: #ff9e3d; --darkreader-inline-fill: #a30029;" visibility="hidden" width="130" x="-65" y="-21"/>
<path d="M-345,-60 C-303.3333333333333,-34.999999999999986 -261.6666666666667,-10.00000000000001 -220,15" data-darkreader-inline-fill="" data-darkreader-inline-stroke="" fill-opacity="0.4" stroke="#CC0033" stroke-opacity="0.4" stroke-width="1px" style="fill: none; --darkreader-inline-stroke: #ff3d6e; --darkreader-inline-fill: none;" visibility="hidden"/>
<path d="M-133,-29 C-88.66666666666666,-19.333333333333332 -44.333333333333336,-9.666666666666666 0,0" data-darkreader-inline-fill="" data-darkreader-inline-stroke="" fill-opacity="0.4" stroke="#CC0033" stroke-opacity="0.4" stroke-width="1px" style="fill: none; --darkreader-inline-stroke: #ff3d6e; --darkreader-inline-fill: none;" visibility="hidden"/>
<path d="M186,-50 C195,-50 206,-16 215,-16" fill="#495879" fill-opacity="1" stroke="#495879" stroke-opacity="1" stroke-width="1px" style="fill:none " visibility="visible"/>
<path d="M186,-50 C195,-50 206,-42 215,-42" fill="#495879" fill-opacity="1" stroke="#495879" stroke-opacity="1" stroke-width="1px" style="fill:none " visibility="visible"/>
<path d="M186,-50 C195,-50 206,-68 215,-68" fill="#495879" fill-opacity="1" stroke="#495879" stroke-opacity="1" stroke-width="1px" style="fill:none " visibility="visible"/>
<path d="M-220,14 C-230,14 -240,71 -250,71" fill="#495879" fill-opacity="1" stroke="#495879" stroke-opacity="1" stroke-width="1px" style="fill:none " visibility="visible"/>
<path d="M0,0 C-31,0 -63,14 -94,14 -63,17 -31,5 0,7 Z" fill="#495879" fill-opacity="1" stroke="#495879" stroke-opacity="1" stroke-width="1px" style="fill:#495879 " visibility="visible"/>
<path d="M-220,14 C-229,14 -240,46 -249,46" fill="#495879" fill-opacity="1" stroke="#495879" stroke-opacity="1" stroke-width="1px" style="fill:none " visibility="visible"/>
<path d="M-220,14 C-230,14 -240,21 -250,21" fill="#495879" fill-opacity="1" stroke="#495879" stroke-opacity="1" stroke-width="1px" style="fill:none " visibility="visible"/>
<path d="M-220,14 C-229,14 -240,-3 -249,-3" fill="#495879" fill-opacity="1" stroke="#495879" stroke-opacity="1" stroke-width="1px" style="fill:none " visibility="visible"/>
<path d="M-220,14 C-229,14 -240,-28 -249,-28" fill="#495879" fill-opacity="1" stroke="#495879" stroke-opacity="1" stroke-width="1px" style="fill:none " visibility="visible"/>
<path d="M184,39 C193,39 203,84 212,84" fill="#495879" fill-opacity="1" stroke="#495879" stroke-opacity="1" stroke-width="1px" style="fill:none " visibility="visible"/>
<path d="M184,39 C193,39 203,59 212,59" fill="#495879" fill-opacity="1" stroke="#495879" stroke-opacity="1" stroke-width="1px" style="fill:none " visibility="visible"/>
<path d="M184,39 C193,39 203,34 212,34" fill="#495879" fill-opacity="1" stroke="#495879" stroke-opacity="1" stroke-width="1px" style="fill:none " visibility="visible"/>
<path d="M184,39 C193,39 203,10 212,10" fill="#495879" fill-opacity="1" stroke="#495879" stroke-opacity="1" stroke-width="1px" style="fill:none " visibility="visible"/>
<path d="M0,0 C31,0 64,39 95,39 64,42 31,5 0,7 Z" fill="#495879" fill-opacity="1" stroke="#495879" stroke-opacity="1" stroke-width="1px" style="fill:#495879 " visibility="visible"/>
<path d="M0,0 C31,0 64,-50 95,-50 64,-47 31,5 0,7 Z" fill="#495879" fill-opacity="1" stroke="#495879" stroke-opacity="1" stroke-width="1px" style="fill:#495879 " visibility="visible"/>
<g focusable="true" height="100" preserveAspectRatio="none" transform="translate(-63,-19) scale(1,1)" visibility="visible" width="100">
<rect data-darkreader-inline-fill="" data-darkreader-inline-stroke="" fill="rgb(252,235,192)" fill-opacity="0" height="44" rx="6.6" ry="6.6" stroke="rgb(241,163,39)" stroke-opacity="0" stroke-width="1px" style="cursor: default; --darkreader-inline-stroke: #f2aa38; --darkreader-inline-fill: #563f04;" width="130" x="-2" y="-3"/>
<rect data-darkreader-inline-fill="" data-darkreader-inline-stroke="" fill="rgb(80,157,192)" height="38" rx="5.7" ry="5.7" stroke="rgb(57,113,177)" stroke-width="2px" style="cursor: default; --darkreader-inline-stroke: #6ea3d0; --darkreader-inline-fill: #33728f;" width="126" x="0" y="0"/>
<text data-darkreader-inline-fill="" fill="#ffffff" font-family="verdana" font-size="13.4375" font-style="normal" font-weight="bold" style="cursor: default; --darkreader-inline-fill: #e8e6e3;" visibility="visible" x="11" y="11">
<tspan dy="1em" x="11">Urheberrecht</tspan>
</text>
<g focusable="true" height="16" preserveAspectRatio="none" transform="translate(0,11) scale(0,0.16)" width="0"/>
</g>
<g focusable="true" height="100" preserveAspectRatio="none" transform="translate(93,-59) scale(1,1)" visibility="visible" width="100">
<rect data-darkreader-inline-fill="" data-darkreader-inline-stroke="" fill="rgb(252,235,192)" fill-opacity="0" height="25" rx="3.75" ry="3.75" stroke="rgb(241,163,39)" stroke-opacity="0" stroke-width="1px" style="cursor: move; --darkreader-inline-fill: #563f04; --darkreader-inline-stroke: #f2aa38;" width="95" x="-2" y="-3"/>
<rect data-darkreader-inline-fill="" data-darkreader-inline-stroke="" fill="rgb(224,229,239)" height="19" rx="2.85" ry="2.85" stroke="rgb(2,59,185)" stroke-width="2px" style="cursor: move; --darkreader-inline-fill: #25282a; --darkreader-inline-stroke: #5eaafd;" width="91" x="0" y="0"/>
<text data-darkreader-inline-fill="" fill="rgb(82,92,97)" font-family="verdana" font-size="10.75" font-style="normal" font-weight="normal" style="cursor: move; --darkreader-inline-fill: #afa99e;" visibility="visible" x="3" y="3">
<tspan dy="1em" x="3">Werk § 2 UrhG</tspan>
</text>
<g focusable="true" height="13" preserveAspectRatio="none" transform="translate(0,3) scale(0,0.13)" width="0"/>
<ellipse cx="94" cy="9.5" data-darkreader-inline-fill="" data-darkreader-inline-stroke="" fill="rgb(224,229,239)" height="6" rx="3" ry="3" stroke="rgb(2,59,185)" stroke-width="1px" style="cursor: default; --darkreader-inline-fill: #c8d5e2; --darkreader-inline-stroke: #5eaafd;" visibility="visible" width="6"/>
</g>
<g focusable="true" height="100" preserveAspectRatio="none" transform="translate(-255,-71) scale(1,1)" visibility="visible" width="100">
<rect data-darkreader-inline-fill="" data-darkreader-inline-stroke="" fill="rgb(252,235,192)" fill-opacity="0" height="24" rx="3.5999999999999996" ry="3.5999999999999996" stroke="rgb(241,163,39)" stroke-opacity="0" stroke-width="1px" style="cursor: move; --darkreader-inline-fill: #563f04; --darkreader-inline-stroke: #f2aa38;" width="166" x="-2" y="-3"/>
<rect data-darkreader-inline-fill="" data-darkreader-inline-stroke="" fill="rgb(224,229,239)" height="18" rx="2.6999999999999997" ry="2.6999999999999997" stroke="rgb(2,59,185)" stroke-width="2px" style="cursor: move; --darkreader-inline-fill: #25282a; --darkreader-inline-stroke: #5eaafd;" width="162" x="0" y="0"/>
<text data-darkreader-inline-fill="" fill="rgb(82,92,97)" font-family="verdana" font-size="10.75" font-style="normal" font-weight="normal" style="cursor: move; --darkreader-inline-fill: #afa99e;" visibility="visible" x="3" y="3">
<tspan dy="1em" x="3">Schutzdauer § 64/65 UrhG</tspan>
</text>
<g focusable="true" height="12" preserveAspectRatio="none" transform="translate(0,3) scale(0,0.12)" width="0"/>
<ellipse cx="3" cy="3" data-darkreader-inline-fill="" data-darkreader-inline-stroke="" fill="rgb(224,229,239)" height="6" rx="3" ry="3" stroke="rgb(2,59,185)" stroke-width="1px" style="cursor: default; --darkreader-inline-fill: #c8d5e2; --darkreader-inline-stroke: #5eaafd;" visibility="hidden" width="6"/>
</g>
<g focusable="true" height="100" preserveAspectRatio="none" transform="translate(93,29) scale(1,1)" visibility="visible" width="100">
<rect data-darkreader-inline-fill="" data-darkreader-inline-stroke="" fill="rgb(252,235,192)" fill-opacity="0" height="25" rx="3.75" ry="3.75" stroke="rgb(241,163,39)" stroke-opacity="0" stroke-width="1px" style="cursor: move; --darkreader-inline-fill: #563f04; --darkreader-inline-stroke: #f2aa38;" width="93" x="-2" y="-3"/>
<rect data-darkreader-inline-fill="" data-darkreader-inline-stroke="" fill="rgb(224,229,239)" height="19" rx="2.85" ry="2.85" stroke="rgb(2,59,185)" stroke-width="2px" style="cursor: move; --darkreader-inline-fill: #25282a; --darkreader-inline-stroke: #5eaafd;" width="89" x="0" y="0"/>
<text data-darkreader-inline-fill="" fill="rgb(82,92,97)" font-family="verdana" font-size="10.75" font-style="normal" font-weight="normal" style="cursor: move; --darkreader-inline-fill: #afa99e;" visibility="visible" x="3" y="3">
<tspan dy="1em" x="3">Schutzumfang</tspan>
</text>
<g focusable="true" height="13" preserveAspectRatio="none" transform="translate(0,3) scale(0,0.13)" width="0"/>
<ellipse cx="92" cy="9.5" data-darkreader-inline-fill="" data-darkreader-inline-stroke="" fill="rgb(224,229,239)" height="6" rx="3" ry="3" stroke="rgb(2,59,185)" stroke-width="1px" style="cursor: default; --darkreader-inline-fill: #c8d5e2; --darkreader-inline-stroke: #5eaafd;" visibility="visible" width="6"/>
</g>
<g focusable="true" height="100" preserveAspectRatio="none" transform="translate(212,-5) scale(1,1)" visibility="visible" width="100">
<rect data-darkreader-inline-fill="" data-darkreader-inline-stroke="" fill="rgb(252,235,192)" fill-opacity="0" height="21" rx="3.15" ry="3.15" stroke="rgb(241,163,39)" stroke-opacity="0" stroke-width="1px" style="cursor: move; --darkreader-inline-fill: #563f04; --darkreader-inline-stroke: #f2aa38;" width="236" x="-2" y="-3"/>
<line data-darkreader-inline-stroke="" stroke="#495879" stroke-opacity="1" stroke-width="1px" style="cursor: move; --darkreader-inline-stroke: #4a597b;" x1="0" x2="232" y1="15" y2="15"/>
<text data-darkreader-inline-fill="" fill="rgb(82,92,97)" font-family="verdana" font-size="8.0625" font-style="normal" font-weight="normal" style="cursor: move; --darkreader-inline-fill: #afa99e;" visibility="visible" x="3" y="3">
<tspan dy="1em" x="3">Recht als Urheber anerkannt zu werden § 13 UrhG</tspan>
</text>
<g focusable="true" height="9" preserveAspectRatio="none" transform="translate(0,3) scale(0,0.09)" width="0"/>
<ellipse cx="3" cy="3" data-darkreader-inline-fill="" data-darkreader-inline-stroke="" fill="rgb(224,229,239)" height="6" rx="3" ry="3" stroke="rgb(2,59,185)" stroke-width="1px" style="cursor: default; --darkreader-inline-fill: #c8d5e2; --darkreader-inline-stroke: #5eaafd;" visibility="hidden" width="6"/>
</g>
<g focusable="true" height="100" preserveAspectRatio="none" transform="translate(212,19) scale(1,1)" visibility="visible" width="100">
<rect data-darkreader-inline-fill="" data-darkreader-inline-stroke="" fill="rgb(252,235,192)" fill-opacity="0" height="21" rx="3.15" ry="3.15" stroke="rgb(241,163,39)" stroke-opacity="0" stroke-width="1px" style="cursor: move; --darkreader-inline-fill: #563f04; --darkreader-inline-stroke: #f2aa38;" width="339" x="-2" y="-3"/>
<line data-darkreader-inline-stroke="" stroke="#495879" stroke-opacity="1" stroke-width="1px" style="cursor: move; --darkreader-inline-stroke: #4a597b;" x1="0" x2="335" y1="15" y2="15"/>
<text data-darkreader-inline-fill="" fill="rgb(82,92,97)" font-family="verdana" font-size="8.0625" font-style="normal" font-weight="normal" style="cursor: move; --darkreader-inline-fill: #afa99e;" visibility="visible" x="3" y="3">
<tspan dy="1em" x="3">Recht, das Werk nicht der Öffentlichkeit zugänglich zu machen § 12 UrhG</tspan>
</text>
<g focusable="true" height="9" preserveAspectRatio="none" transform="translate(0,3) scale(0,0.09)" width="0"/>
<ellipse cx="3" cy="3" data-darkreader-inline-fill="" data-darkreader-inline-stroke="" fill="rgb(224,229,239)" height="6" rx="3" ry="3" stroke="rgb(2,59,185)" stroke-width="1px" style="cursor: default; --darkreader-inline-fill: #c8d5e2; --darkreader-inline-stroke: #5eaafd;" visibility="hidden" width="6"/>
</g>
<g focusable="true" height="100" preserveAspectRatio="none" transform="translate(212,44) scale(1,1)" visibility="visible" width="100">
<rect data-darkreader-inline-fill="" data-darkreader-inline-stroke="" fill="rgb(252,235,192)" fill-opacity="0" height="21" rx="3.15" ry="3.15" stroke="rgb(241,163,39)" stroke-opacity="0" stroke-width="1px" style="cursor: move; --darkreader-inline-fill: #563f04; --darkreader-inline-stroke: #f2aa38;" width="137" x="-2" y="-3"/>
<line data-darkreader-inline-stroke="" stroke="#495879" stroke-opacity="1" stroke-width="1px" style="cursor: move; --darkreader-inline-stroke: #4a597b;" x1="0" x2="133" y1="15" y2="15"/>
<text data-darkreader-inline-fill="" fill="rgb(82,92,97)" font-family="verdana" font-size="8.0625" font-style="normal" font-weight="normal" style="cursor: move; --darkreader-inline-fill: #afa99e;" visibility="visible" x="3" y="3">
<tspan dy="1em" x="3">Entstellungsrecht § 14 UrhG</tspan>
</text>
<g focusable="true" height="9" preserveAspectRatio="none" transform="translate(0,3) scale(0,0.09)" width="0"/>
<ellipse cx="3" cy="3" data-darkreader-inline-fill="" data-darkreader-inline-stroke="" fill="rgb(224,229,239)" height="6" rx="3" ry="3" stroke="rgb(2,59,185)" stroke-width="1px" style="cursor: default; --darkreader-inline-fill: #c8d5e2; --darkreader-inline-stroke: #5eaafd;" visibility="hidden" width="6"/>
</g>
<g focusable="true" height="100" preserveAspectRatio="none" transform="translate(212,69) scale(1,1)" visibility="visible" width="100">
<rect data-darkreader-inline-fill="" data-darkreader-inline-stroke="" fill="rgb(252,235,192)" fill-opacity="0" height="21" rx="3.15" ry="3.15" stroke="rgb(241,163,39)" stroke-opacity="0" stroke-width="1px" style="cursor: move; --darkreader-inline-fill: #563f04; --darkreader-inline-stroke: #f2aa38;" width="159" x="-2" y="-3"/>
<line data-darkreader-inline-stroke="" stroke="#495879" stroke-opacity="1" stroke-width="1px" style="cursor: move; --darkreader-inline-stroke: #4a597b;" x1="0" x2="155" y1="15" y2="15"/>
<text data-darkreader-inline-fill="" fill="rgb(82,92,97)" font-family="verdana" font-size="8.0625" font-style="normal" font-weight="normal" style="cursor: move; --darkreader-inline-fill: #afa99e;" visibility="visible" x="3" y="3">
<tspan dy="1em" x="3">Verwertungsrechte §§ 15 ff. UrhG</tspan>
</text>
<g focusable="true" height="9" preserveAspectRatio="none" transform="translate(0,3) scale(0,0.09)" width="0"/>
<ellipse cx="3" cy="3" data-darkreader-inline-fill="" data-darkreader-inline-stroke="" fill="rgb(224,229,239)" height="6" rx="3" ry="3" stroke="rgb(2,59,185)" stroke-width="1px" style="cursor: default; --darkreader-inline-fill: #c8d5e2; --darkreader-inline-stroke: #5eaafd;" visibility="hidden" width="6"/>
</g>
<g focusable="true" height="100" preserveAspectRatio="none" transform="translate(-219,4) scale(1,1)" visibility="visible" width="100">
<rect data-darkreader-inline-fill="" data-darkreader-inline-stroke="" fill="rgb(252,235,192)" fill-opacity="0" height="25" rx="3.75" ry="3.75" stroke="rgb(241,163,39)" stroke-opacity="0" stroke-width="1px" style="cursor: move; --darkreader-inline-fill: #563f04; --darkreader-inline-stroke: #f2aa38;" width="131" x="-2" y="-3"/>
<rect data-darkreader-inline-fill="" data-darkreader-inline-stroke="" fill="rgb(224,229,239)" height="19" rx="2.85" ry="2.85" stroke="rgb(2,59,185)" stroke-width="2px" style="cursor: move; --darkreader-inline-fill: #25282a; --darkreader-inline-stroke: #5eaafd;" visibility="visible" width="127" x="0" y="0"/>
<text data-darkreader-inline-fill="" fill="rgb(82,92,97)" font-family="verdana" font-size="10.75" font-style="normal" font-weight="normal" style="cursor: move; --darkreader-inline-fill: #afa99e;" visibility="visible" x="3" y="3">
<tspan dy="1em" x="3">Computerprogramme</tspan>
</text>
<g focusable="true" height="13" preserveAspectRatio="none" transform="translate(0,3) scale(0,0.13)" width="0"/>
<ellipse cx="-3" cy="9.5" data-darkreader-inline-fill="" data-darkreader-inline-stroke="" fill="rgb(224,229,239)" height="6" rx="3" ry="3" stroke="rgb(2,59,185)" stroke-width="1px" style="cursor: default; --darkreader-inline-fill: #c8d5e2; --darkreader-inline-stroke: #5eaafd;" visibility="visible" width="6"/>
</g>
<g focusable="true" height="100" preserveAspectRatio="none" transform="translate(-486,-43) scale(1,1)" visibility="visible" width="100">
<rect data-darkreader-inline-fill="" data-darkreader-inline-stroke="" fill="rgb(252,235,192)" fill-opacity="0" height="21" rx="3.15" ry="3.15" stroke="rgb(241,163,39)" stroke-opacity="0" stroke-width="1px" style="cursor: move; --darkreader-inline-fill: #563f04; --darkreader-inline-stroke: #f2aa38;" width="241" x="-2" y="-3"/>
<line data-darkreader-inline-stroke="" stroke="#495879" stroke-opacity="1" stroke-width="1px" style="cursor: move; --darkreader-inline-stroke: #4a597b;" x1="0" x2="237" y1="15" y2="15"/>
<text data-darkreader-inline-fill="" fill="rgb(82,92,97)" font-family="verdana" font-size="8.0625" font-style="normal" font-weight="normal" style="cursor: move; --darkreader-inline-fill: #afa99e;" visibility="visible" x="3" y="3">
<tspan dy="1em" x="3">Sprachwerke § 2 Abs. I Nr. 1 I. V. m. §69a (4) UrhG</tspan>
</text>
<g focusable="true" height="9" preserveAspectRatio="none" transform="translate(0,3) scale(0,0.09)" width="0"/>
<ellipse cx="3" cy="3" data-darkreader-inline-fill="" data-darkreader-inline-stroke="" fill="rgb(224,229,239)" height="6" rx="3" ry="3" stroke="rgb(2,59,185)" stroke-width="1px" style="cursor: default; --darkreader-inline-fill: #c8d5e2; --darkreader-inline-stroke: #5eaafd;" visibility="hidden" width="6"/>
</g>
<g focusable="true" height="100" preserveAspectRatio="none" transform="translate(-412,-18) scale(1,1)" visibility="visible" width="100">
<rect data-darkreader-inline-fill="" data-darkreader-inline-stroke="" fill="rgb(252,235,192)" fill-opacity="0" height="21" rx="3.15" ry="3.15" stroke="rgb(241,163,39)" stroke-opacity="0" stroke-width="1px" style="cursor: move; --darkreader-inline-fill: #563f04; --darkreader-inline-stroke: #f2aa38;" width="167" x="-2" y="-3"/>
<line data-darkreader-inline-stroke="" stroke="#495879" stroke-opacity="1" stroke-width="1px" style="cursor: move; --darkreader-inline-stroke: #4a597b;" x1="0" x2="163" y1="15" y2="15"/>
<text data-darkreader-inline-fill="" fill="rgb(82,92,97)" font-family="verdana" font-size="8.0625" font-style="normal" font-weight="normal" style="cursor: move; --darkreader-inline-fill: #afa99e;" visibility="visible" x="3" y="3">
<tspan dy="1em" x="3">Schutzgegenstand § 69 a (I) UrhG</tspan>
</text>
<g focusable="true" height="9" preserveAspectRatio="none" transform="translate(0,3) scale(0,0.09)" width="0"/>
<ellipse cx="3" cy="3" data-darkreader-inline-fill="" data-darkreader-inline-stroke="" fill="rgb(224,229,239)" height="6" rx="3" ry="3" stroke="rgb(2,59,185)" stroke-width="1px" style="cursor: default; --darkreader-inline-fill: #c8d5e2; --darkreader-inline-stroke: #5eaafd;" visibility="hidden" width="6"/>
</g>
<g focusable="true" height="100" preserveAspectRatio="none" transform="translate(-388,6) scale(1,1)" visibility="visible" width="100">
<rect data-darkreader-inline-fill="" data-darkreader-inline-stroke="" fill="rgb(252,235,192)" fill-opacity="0" height="21" rx="3.15" ry="3.15" stroke="rgb(241,163,39)" stroke-opacity="0" stroke-width="1px" style="cursor: move; --darkreader-inline-fill: #563f04; --darkreader-inline-stroke: #f2aa38;" width="142" x="-2" y="-3"/>
<line data-darkreader-inline-stroke="" stroke="#495879" stroke-opacity="1" stroke-width="1px" style="cursor: move; --darkreader-inline-stroke: #4a597b;" x1="0" x2="138" y1="15" y2="15"/>
<text data-darkreader-inline-fill="" fill="rgb(82,92,97)" font-family="verdana" font-size="8.0625" font-style="normal" font-weight="normal" style="cursor: move; --darkreader-inline-fill: #afa99e;" visibility="visible" x="3" y="3">
<tspan dy="1em" x="3">Keine Ideen § 69 a (2) UrhG</tspan>
</text>
<g focusable="true" height="9" preserveAspectRatio="none" transform="translate(0,3) scale(0,0.09)" width="0"/>
<ellipse cx="3" cy="3" data-darkreader-inline-fill="" data-darkreader-inline-stroke="" fill="rgb(224,229,239)" height="6" rx="3" ry="3" stroke="rgb(2,59,185)" stroke-width="1px" style="cursor: default; --darkreader-inline-fill: #c8d5e2; --darkreader-inline-stroke: #5eaafd;" visibility="hidden" width="6"/>
</g>
<g focusable="true" height="100" preserveAspectRatio="none" transform="translate(-412,31) scale(1,1)" visibility="visible" width="100">
<rect data-darkreader-inline-fill="" data-darkreader-inline-stroke="" fill="rgb(252,235,192)" fill-opacity="0" height="21" rx="3.15" ry="3.15" stroke="rgb(241,163,39)" stroke-opacity="0" stroke-width="1px" style="cursor: move; --darkreader-inline-fill: #563f04; --darkreader-inline-stroke: #f2aa38;" width="167" x="-2" y="-3"/>
<line data-darkreader-inline-stroke="" stroke="#495879" stroke-opacity="1" stroke-width="1px" style="cursor: move; --darkreader-inline-stroke: #4a597b;" x1="0" x2="163" y1="15" y2="15"/>
<text data-darkreader-inline-fill="" fill="rgb(82,92,97)" font-family="verdana" font-size="8.0625" font-style="normal" font-weight="normal" style="cursor: move; --darkreader-inline-fill: #afa99e;" visibility="visible" x="3" y="3">
<tspan dy="1em" x="3">Individuelles Werk § 69a (3) UrhG</tspan>
</text>
<g focusable="true" height="9" preserveAspectRatio="none" transform="translate(0,3) scale(0,0.09)" width="0"/>
<ellipse cx="3" cy="3" data-darkreader-inline-fill="" data-darkreader-inline-stroke="" fill="rgb(224,229,239)" height="6" rx="3" ry="3" stroke="rgb(2,59,185)" stroke-width="1px" style="cursor: default; --darkreader-inline-fill: #c8d5e2; --darkreader-inline-stroke: #5eaafd;" visibility="hidden" width="6"/>
</g>
<g focusable="true" height="100" preserveAspectRatio="none" transform="translate(-430,56) scale(1,1)" visibility="visible" width="100">
<rect data-darkreader-inline-fill="" data-darkreader-inline-stroke="" fill="rgb(252,235,192)" fill-opacity="0" height="21" rx="3.15" ry="3.15" stroke="rgb(241,163,39)" stroke-opacity="0" stroke-width="1px" style="cursor: move; --darkreader-inline-fill: #563f04; --darkreader-inline-stroke: #f2aa38;" width="184" x="-2" y="-3"/>
<line data-darkreader-inline-stroke="" stroke="#495879" stroke-opacity="1" stroke-width="1px" style="cursor: move; --darkreader-inline-stroke: #4a597b;" x1="0" x2="180" y1="15" y2="15"/>
<text data-darkreader-inline-fill="" fill="rgb(82,92,97)" font-family="verdana" font-size="8.0625" font-style="normal" font-weight="normal" style="cursor: move; --darkreader-inline-fill: #afa99e;" visibility="visible" x="3" y="3">
<tspan dy="1em" x="3">Arbeitnehmererfindung § 69b (I) UrhG</tspan>
</text>
<g focusable="true" height="9" preserveAspectRatio="none" transform="translate(0,3) scale(0,0.09)" width="0"/>
<ellipse cx="3" cy="3" data-darkreader-inline-fill="" data-darkreader-inline-stroke="" fill="rgb(224,229,239)" height="6" rx="3" ry="3" stroke="rgb(2,59,185)" stroke-width="1px" style="cursor: default; --darkreader-inline-fill: #c8d5e2; --darkreader-inline-stroke: #5eaafd;" visibility="hidden" width="6"/>
</g>
<g focusable="true" height="100" preserveAspectRatio="none" transform="translate(215,-84) scale(1,1)" visibility="visible" width="100">
<rect data-darkreader-inline-fill="" data-darkreader-inline-stroke="" fill="rgb(252,235,192)" fill-opacity="0" height="22" rx="3.3" ry="3.3" stroke="rgb(241,163,39)" stroke-opacity="0" stroke-width="1px" style="cursor: move; --darkreader-inline-fill: #563f04; --darkreader-inline-stroke: #f2aa38;" width="176" x="-2" y="-3"/>
<line data-darkreader-inline-stroke="" stroke="#495879" stroke-opacity="1" stroke-width="1px" style="cursor: move; --darkreader-inline-stroke: #4a597b;" x1="0" x2="172" y1="16" y2="16"/>
<text data-darkreader-inline-fill="" fill="rgb(82,92,97)" font-family="verdana" font-size="8.0625" font-style="normal" font-weight="normal" style="cursor: move; --darkreader-inline-fill: #afa99e;" visibility="visible" x="3" y="3">
<tspan dy="1em" x="3">Persönliche, geistige Schöpfungen</tspan>
</text>
<g focusable="true" height="10" preserveAspectRatio="none" transform="translate(0,3) scale(0,0.1)" width="0"/>
<ellipse cx="3" cy="3" data-darkreader-inline-fill="" data-darkreader-inline-stroke="" fill="rgb(224,229,239)" height="6" rx="3" ry="3" stroke="rgb(2,59,185)" stroke-width="1px" style="cursor: default; --darkreader-inline-fill: #c8d5e2; --darkreader-inline-stroke: #5eaafd;" visibility="hidden" width="6"/>
</g>
<g focusable="true" height="100" preserveAspectRatio="none" transform="translate(215,-58) scale(1,1)" visibility="visible" width="100">
<rect data-darkreader-inline-fill="" data-darkreader-inline-stroke="" fill="rgb(252,235,192)" fill-opacity="0" height="22" rx="3.3" ry="3.3" stroke="rgb(241,163,39)" stroke-opacity="0" stroke-width="1px" style="cursor: move; --darkreader-inline-fill: #563f04; --darkreader-inline-stroke: #f2aa38;" width="74" x="-2" y="-3"/>
<line data-darkreader-inline-stroke="" stroke="#495879" stroke-opacity="1" stroke-width="1px" style="cursor: move; --darkreader-inline-stroke: #4a597b;" x1="0" x2="70" y1="16" y2="16"/>
<text data-darkreader-inline-fill="" fill="rgb(82,92,97)" font-family="verdana" font-size="8.0625" font-style="normal" font-weight="normal" style="cursor: move; --darkreader-inline-fill: #afa99e;" visibility="visible" x="3" y="3">
<tspan dy="1em" x="3">Sprachwerke</tspan>
</text>
<g focusable="true" height="10" preserveAspectRatio="none" transform="translate(0,3) scale(0,0.1)" width="0"/>
<ellipse cx="3" cy="3" data-darkreader-inline-fill="" data-darkreader-inline-stroke="" fill="rgb(224,229,239)" height="6" rx="3" ry="3" stroke="rgb(2,59,185)" stroke-width="1px" style="cursor: default; --darkreader-inline-fill: #c8d5e2; --darkreader-inline-stroke: #5eaafd;" visibility="hidden" width="6"/>
</g>
<g focusable="true" height="100" preserveAspectRatio="none" transform="translate(215,-32) scale(1,1)" visibility="visible" width="100">
<rect data-darkreader-inline-fill="" data-darkreader-inline-stroke="" fill="rgb(252,235,192)" fill-opacity="0" height="22" rx="3.3" ry="3.3" stroke="rgb(241,163,39)" stroke-opacity="0" stroke-width="1px" style="cursor: move; --darkreader-inline-fill: #563f04; --darkreader-inline-stroke: #f2aa38;" width="26" x="-2" y="-3"/>
<line data-darkreader-inline-stroke="" stroke="#495879" stroke-opacity="1" stroke-width="1px" style="cursor: move; --darkreader-inline-stroke: #4a597b;" x1="0" x2="22" y1="16" y2="16"/>
<text data-darkreader-inline-fill="" fill="rgb(82,92,97)" font-family="verdana" font-size="8.0625" font-style="normal" font-weight="normal" style="cursor: move; --darkreader-inline-fill: #afa99e;" visibility="visible" x="3" y="3">
<tspan dy="1em" x="3">...</tspan>
</text>
<g focusable="true" height="10" preserveAspectRatio="none" transform="translate(0,3) scale(0,0.1)" width="0"/>
<ellipse cx="3" cy="3" data-darkreader-inline-fill="" data-darkreader-inline-stroke="" fill="rgb(224,229,239)" height="6" rx="3" ry="3" stroke="rgb(2,59,185)" stroke-width="1px" style="cursor: default; --darkreader-inline-fill: #c8d5e2; --darkreader-inline-stroke: #5eaafd;" visibility="hidden" width="6"/>
</g>
<rect data-darkreader-inline-fill="" data-darkreader-inline-stroke="" fill="#CC0033" fill-opacity="0.4" height="6" rx="0" ry="0" stroke="#FF9933" stroke-opacity="0.4" stroke-width="1px" style="--darkreader-inline-stroke: #ff9e3d; --darkreader-inline-fill: #a30029;" visibility="hidden" width="50" x="-181" y="-32"/>
</svg>
